<svg class="animated" id="freepik_stories-top-secret" xmlns="http://www.w3.org/2000/svg" viewBox="0 0 500 500" version="1.1" xmlns:xlink="http://www.w3.org/1999/xlink" xmlns:svgjs="http://svgjs.com/svgjs"><style>svg#freepik_stories-top-secret:not(.animated) .animable {opacity: 0;}svg#freepik_stories-top-secret.animated #freepik--Floor--inject-180 {animation: 1s 1 forwards cubic-bezier(.36,-0.01,.5,1.38) zoomIn,1.5s Infinite  linear floating;animation-delay: 0s,1s;}svg#freepik_stories-top-secret.animated #freepik--Shadows--inject-180 {animation: 1s 1 forwards cubic-bezier(.36,-0.01,.5,1.38) slideRight;animation-delay: 0s;}svg#freepik_stories-top-secret.animated #freepik--Document--inject-180 {animation: 1s 1 forwards cubic-bezier(.36,-0.01,.5,1.38) zoomIn,1.5s Infinite  linear floating;animation-delay: 0s,1s;}svg#freepik_stories-top-secret.animated #freepik--file-cabinet--inject-180 {animation: 1s 1 forwards cubic-bezier(.36,-0.01,.5,1.38) zoomIn,1.5s Infinite  linear floating;animation-delay: 0s,1s;}svg#freepik_stories-top-secret.animated #freepik--speech-bubble-2--inject-180 {animation: 1s 1 forwards cubic-bezier(.36,-0.01,.5,1.38) zoomIn,1.5s Infinite  linear floating;animation-delay: 0s,1s;}svg#freepik_stories-top-secret.animated #freepik--Stamp--inject-180 {animation: 1s 1 forwards cubic-bezier(.36,-0.01,.5,1.38) zoomIn,1.5s Infinite  linear floating;animation-delay: 0s,1s;}svg#freepik_stories-top-secret.animated #freepik--Folder--inject-180 {animation: 1s 1 forwards cubic-bezier(.36,-0.01,.5,1.38) zoomIn,1.5s Infinite  linear floating;animation-delay: 0s,1s;}svg#freepik_stories-top-secret.animated #freepik--Photo--inject-180 {animation: 1s 1 forwards cubic-bezier(.36,-0.01,.5,1.38) zoomIn,1.5s Infinite  linear floating;animation-delay: 0s,1s;}svg#freepik_stories-top-secret.animated #freepik--Character--inject-180 {animation: 1s 1 forwards cubic-bezier(.36,-0.01,.5,1.38) zoomIn,1.5s Infinite  linear floating;animation-delay: 0s,1s;}svg#freepik_stories-top-secret.animated #freepik--speech-bubble-1--inject-180 {animation: 1s 1 forwards cubic-bezier(.36,-0.01,.5,1.38) zoomIn,1.5s Infinite  linear floating;animation-delay: 0s,1s;}            @keyframes zoomIn {                0% {                    opacity: 0;                    transform: scale(0.5);                }                100% {                    opacity: 1;                    transform: scale(1);                }            }                    @keyframes floating {                0% {                    opacity: 1;                    transform: translateY(0px);                }                50% {                    transform: translateY(-10px);                }                100% {                    opacity: 1;                    transform: translateY(0px);                }            }                    @keyframes slideRight {                0% {                    opacity: 0;                    transform: translateX(30px);                }                100% {                    opacity: 1;                    transform: translateX(0);                }            }        </style><g id="freepik--Floor--inject-180" class="animable" style="transform-origin: 249.995px 336.741px;"><path id="freepik--floor--inject-180" d="M77.66,237.25c-95.18,54.95-95.17,144.05,0,199s249.49,54.95,344.67,0,95.17-144,0-199S172.84,182.3,77.66,237.25Z" style="fill: rgb(250, 250, 250); transform-origin: 249.995px 336.741px;" class="animable"></path></g><g id="freepik--Shadows--inject-180" class="animable" style="transform-origin: 326.535px 317.692px;"><ellipse id="freepik--Shadow--inject-180" cx="428.36" cy="353.18" rx="60.16" ry="34.73" style="fill: rgb(224, 224, 224); transform-origin: 428.36px 353.18px;" class="animable"></ellipse><path id="freepik--shadow--inject-180" d="M280.83,222.67l61.31-35.4a3,3,0,0,1,2.68,0l44.71,25.82a.81.81,0,0,1,0,1.54L328.22,250a3,3,0,0,1-2.68,0l-44.71-25.81A.82.82,0,0,1,280.83,222.67Z" style="fill: rgb(224, 224, 224); transform-origin: 335.203px 218.635px;" class="animable"></path><path id="freepik--shadow--inject-180" d="M392.17,266.45l-25.85,14.93a8.15,8.15,0,0,1-7.73-.19l-44.65-28.64a8.15,8.15,0,0,0-7.73-.18l-21.58,12.46c-2.17,1.25-2.13,3.2.09,4.36l50,26c2.22,1.15,2.27,3.1.1,4.35L297,321.38c-2.17,1.25-2.17,3.28,0,4.53L326,342.62a8.66,8.66,0,0,0,7.84,0L429,287.68c2.17-1.25,2.17-3.27,0-4.52L400,266.45A8.66,8.66,0,0,0,392.17,266.45Z" style="fill: rgb(224, 224, 224); transform-origin: 356.828px 297.52px;" class="animable"></path><g id="freepik--shadow--inject-180"><polygon points="262.69 448.43 164.55 391.75 256.54 338.64 354.68 395.32 262.69 448.43" style="opacity: 0.2; transform-origin: 259.615px 393.535px;" class="animable"></polygon></g></g><g id="freepik--Document--inject-180" class="animable" style="transform-origin: 105.31px 201.755px;"><g id="freepik--document--inject-180" class="animable" style="transform-origin: 105.31px 201.755px;"><g id="freepik--document--inject-180" class="animable" style="transform-origin: 105.31px 201.755px;"><path d="M191.34,33.55l-6.5-3.78L19.29,128.12V366.39c0,2.21.77,3.76,2,4.48h0l4.13,2.39h0c1.25.73,3,.62,4.9-.48l154.06-89a15.29,15.29,0,0,0,6.93-12Z" style="fill: rgb(230, 230, 230); transform-origin: 105.315px 201.747px;" id="elrlncfyrx31" class="animable"></path><g id="el8rw7ipqlzgp"><path d="M21.31,370.87h0l4.13,2.39a3.57,3.57,0,0,0,1.8.46l-3.83-4.94V130.52l-4.13-2.4V366.39C19.29,368.6,20.06,370.15,21.31,370.87Z" style="opacity: 0.15; transform-origin: 23.26px 250.92px;" class="animable"></path></g><path d="M27.26,372.94A5.64,5.64,0,0,0,30,372.1l154.06-89a14.45,14.45,0,0,0,6.53-11.31V34.93L24.22,131V368.79C24.22,371.39,25.36,372.94,27.26,372.94Z" style="fill: rgb(250, 250, 250); transform-origin: 107.405px 203.935px;" id="ellddmb349qa" class="animable"></path><path d="M189.74,36.32V271.81a13.79,13.79,0,0,1-6.13,10.62l-154.06,89a4.77,4.77,0,0,1-2.29.74c-2,0-2.24-2.34-2.24-3.35V131.44L189.74,36.32m1.6-2.77-167.92,97V368.79c0,3.13,1.56,4.95,3.84,4.95a6.3,6.3,0,0,0,3.09-.95l154.06-89a15.29,15.29,0,0,0,6.93-12V33.55Z" style="fill: rgb(224, 224, 224); transform-origin: 107.38px 203.645px;" id="el88rfast1gym" class="animable"></path><g id="freepik--Article--inject-180" class="animable" style="transform-origin: 108.303px 202.312px;"><g id="freepik--Image--inject-180" class="animable" style="transform-origin: 145.905px 102.223px;"><path d="M113.92,93.09v55.2c0,.94.65,1.31,1.46.85l61.05-35.25a3.23,3.23,0,0,0,1.46-2.53V56.15c0-.93-.65-1.31-1.46-.84L115.38,90.56A3.21,3.21,0,0,0,113.92,93.09Z" style="fill: rgb(224, 224, 224); transform-origin: 145.905px 102.223px;" id="elh7gxv66ccns" class="animable"></path></g><g id="freepik--sample-text--inject-180" class="animable" style="transform-origin: 108.303px 225.123px;"><path d="M113.92,163.53a.91.91,0,0,1-.46-1.69l64-36.94a.91.91,0,1,1,.91,1.57l-64,36.94A.92.92,0,0,1,113.92,163.53Z" style="fill: rgb(224, 224, 224); transform-origin: 145.952px 144.135px;" id="elsbikyoe4nr9" class="animable"></path><path d="M113.92,172a.89.89,0,0,1-.79-.46.91.91,0,0,1,.33-1.24l64-36.93a.9.9,0,0,1,1.24.33.91.91,0,0,1-.33,1.24l-64,36.94A.92.92,0,0,1,113.92,172Z" style="fill: rgb(224, 224, 224); transform-origin: 145.915px 152.622px;" id="el4bxyhdgiwcm" class="animable"></path><path d="M113.92,180.53a.91.91,0,0,1-.46-1.7l64-36.94a.91.91,0,0,1,.91,1.58l-64,36.93A.84.84,0,0,1,113.92,180.53Z" style="fill: rgb(224, 224, 224); transform-origin: 145.914px 161.149px;" id="elaj33n6gs89m" class="animable"></path><path d="M113.92,189a.91.91,0,0,1-.46-1.69l64-36.94a.91.91,0,0,1,.91,1.57l-64,36.94A.92.92,0,0,1,113.92,189Z" style="fill: rgb(224, 224, 224); transform-origin: 145.892px 169.64px;" id="elult927e385h" class="animable"></path><path d="M113.92,198.06a.91.91,0,0,1-.46-1.7l64-36.93a.89.89,0,0,1,1.24.33.91.91,0,0,1-.33,1.24l-64,36.94A.92.92,0,0,1,113.92,198.06Z" style="fill: rgb(224, 224, 224); transform-origin: 145.911px 178.681px;" id="elknlcqdca2ab" class="animable"></path><path d="M113.92,208.18a.91.91,0,0,1-.46-1.7l64-36.94a.91.91,0,0,1,.91,1.58l-64,36.93A.84.84,0,0,1,113.92,208.18Z" style="fill: rgb(224, 224, 224); transform-origin: 145.913px 188.8px;" id="eliodlzv7vxmm" class="animable"></path><path d="M113.92,216.67a.91.91,0,0,1-.46-1.69l64-36.94a.91.91,0,0,1,.91,1.57l-64,36.94A.92.92,0,0,1,113.92,216.67Z" style="fill: rgb(224, 224, 224); transform-origin: 145.892px 197.31px;" id="elcel590jot4" class="animable"></path><path d="M113.92,225.17a.91.91,0,0,1-.79-.45.92.92,0,0,1,.33-1.25l64-36.93a.9.9,0,0,1,1.24.33.91.91,0,0,1-.33,1.24l-64,36.94A.92.92,0,0,1,113.92,225.17Z" style="fill: rgb(224, 224, 224); transform-origin: 145.915px 205.792px;" id="elzndcrkkiyu" class="animable"></path><path d="M113.92,233.67a.91.91,0,0,1-.46-1.7l64-36.94a.91.91,0,0,1,.91,1.58l-64,36.93A.84.84,0,0,1,113.92,233.67Z" style="fill: rgb(224, 224, 224); transform-origin: 145.914px 214.289px;" id="elha7qombre59" class="animable"></path><g id="freepik--image--inject-180" class="animable" style="transform-origin: 69.715px 302.402px;"><path d="M37.73,293.27v55.2c0,.93.65,1.31,1.46.85l61.05-35.25a3.23,3.23,0,0,0,1.46-2.53V256.33c0-.93-.65-1.31-1.46-.84l-61,35.25A3.21,3.21,0,0,0,37.73,293.27Z" style="fill: rgb(224, 224, 224); transform-origin: 69.715px 302.402px;" id="eljvcxgvguy" class="animable"></path></g><path d="M37.85,199.22a.91.91,0,0,0,.79.45.92.92,0,0,0,.45-.12l2.37-1.37v-2.1L38.18,198A.91.91,0,0,0,37.85,199.22Z" style="fill: rgb(224, 224, 224); transform-origin: 39.5985px 197.875px;" id="el1eekod8ilac" class="animable"></path><path d="M103.4,161.37a.91.91,0,0,0-1.24-.33L45.25,193.9V196l57.81-33.38A.9.9,0,0,0,103.4,161.37Z" style="fill: rgb(224, 224, 224); transform-origin: 74.3885px 178.459px;" id="eljiw61trhjyc" class="animable"></path><path d="M37.85,207.71a.89.89,0,0,0,.79.46.92.92,0,0,0,.45-.12l2.37-1.37v-2.1l-3.28,1.89A.91.91,0,0,0,37.85,207.71Z" style="fill: rgb(224, 224, 224); transform-origin: 39.5943px 206.375px;" id="eldmjfm3o3o8v" class="animable"></path><path d="M103.4,169.87a.89.89,0,0,0-1.24-.33L45.25,202.39v2.1l57.81-33.38A.91.91,0,0,0,103.4,169.87Z" style="fill: rgb(224, 224, 224); transform-origin: 74.3844px 186.951px;" id="elshvc63o5ti" class="animable"></path><path d="M37.85,216.21a.92.92,0,0,0,.79.46.84.84,0,0,0,.45-.13l2.37-1.37v-2.1L38.18,215A.91.91,0,0,0,37.85,216.21Z" style="fill: rgb(224, 224, 224); transform-origin: 39.6006px 214.87px;" id="el4edxgkam5eh" class="animable"></path><path d="M103.4,178.37a.91.91,0,0,0-1.24-.34L45.25,210.89V213l57.81-33.38A.91.91,0,0,0,103.4,178.37Z" style="fill: rgb(224, 224, 224); transform-origin: 74.3866px 195.456px;" id="elg4toc68y5e" class="animable"></path><path d="M37.85,224.64a.91.91,0,0,0,.79.45.82.82,0,0,0,.45-.12l2.37-1.37v-2.1l-3.28,1.9A.91.91,0,0,0,37.85,224.64Z" style="fill: rgb(224, 224, 224); transform-origin: 39.5943px 223.295px;" id="elj58cg6afkq" class="animable"></path><path d="M103.4,186.79a.91.91,0,0,0-1.24-.33L45.25,219.32v2.1L103.06,188A.92.92,0,0,0,103.4,186.79Z" style="fill: rgb(224, 224, 224); transform-origin: 74.3766px 203.879px;" id="elur9a4vdp9v" class="animable"></path><path d="M67.17,140.31a.89.89,0,0,1-.78-.45.91.91,0,0,1,.33-1.24l35.44-20.45a.89.89,0,0,1,1.24.33.91.91,0,0,1-.34,1.24L67.63,140.19A.86.86,0,0,1,67.17,140.31Z" style="fill: rgb(224, 224, 224); transform-origin: 84.8938px 129.176px;" id="elqqxv54v8s0c" class="animable"></path><path d="M67.17,148.81a.89.89,0,0,1-.78-.45.91.91,0,0,1,.33-1.24l35.44-20.46a.91.91,0,1,1,.9,1.58L67.63,148.69A1,1,0,0,1,67.17,148.81Z" style="fill: rgb(224, 224, 224); transform-origin: 84.9111px 137.665px;" id="el2t9wbod94g4" class="animable"></path><path d="M67.17,131.66a.89.89,0,0,1-.78-.45.91.91,0,0,1,.33-1.24l35.44-20.45a.89.89,0,0,1,1.24.33.91.91,0,0,1-.34,1.24L67.63,131.54A.86.86,0,0,1,67.17,131.66Z" style="fill: rgb(224, 224, 224); transform-origin: 84.8938px 120.526px;" id="elf79datp1udv" class="animable"></path><path d="M67.17,123a.89.89,0,0,1-.78-.45.91.91,0,0,1,.33-1.24l35.44-20.45a.89.89,0,0,1,1.24.33.91.91,0,0,1-.34,1.24L67.63,122.89A.86.86,0,0,1,67.17,123Z" style="fill: rgb(224, 224, 224); transform-origin: 84.8938px 111.866px;" id="el0gjjoead54a" class="animable"></path><path d="M38.64,173.79a.91.91,0,0,1-.46-1.69l64-36.94a.9.9,0,1,1,.9,1.57l-64,36.94A.92.92,0,0,1,38.64,173.79Z" style="fill: rgb(224, 224, 224); transform-origin: 70.6376px 154.415px;" id="el5rbl3r2kewo" class="animable"></path><path d="M38.64,182.29a.89.89,0,0,1-.79-.46.91.91,0,0,1,.33-1.24l64-36.93a.89.89,0,0,1,1.24.33.91.91,0,0,1-.34,1.24l-64,36.94A.92.92,0,0,1,38.64,182.29Z" style="fill: rgb(224, 224, 224); transform-origin: 70.6338px 162.911px;" id="elbpmqlsonajo" class="animable"></path><path d="M38.64,190.72a.91.91,0,0,1-.46-1.7l64-36.93a.89.89,0,0,1,1.24.33.91.91,0,0,1-.34,1.24l-64,36.94A.92.92,0,0,1,38.64,190.72Z" style="fill: rgb(224, 224, 224); transform-origin: 70.6302px 171.341px;" id="elojie7wp6ka" class="animable"></path><g id="freepik--image--inject-180" class="animable" style="transform-origin: 145.875px 236.262px;"><path d="M113.89,249.2v11.06c0,.93.65,1.31,1.46.85l61.05-35.25a3.23,3.23,0,0,0,1.46-2.53V212.26c0-.93-.65-1.31-1.46-.84l-61.05,35.25A3.2,3.2,0,0,0,113.89,249.2Z" style="fill: rgb(224, 224, 224); transform-origin: 145.875px 236.262px;" id="elwtim2mt1gti" class="animable"></path></g><path d="M113.89,307.69a.91.91,0,0,1-.46-1.69l64-36.94a.91.91,0,0,1,.91,1.57l-64,36.94A.92.92,0,0,1,113.89,307.69Z" style="fill: rgb(224, 224, 224); transform-origin: 145.862px 288.33px;" id="elis390fw3bsp" class="animable"></path><path d="M113.89,273.31a.91.91,0,0,1-.46-1.69l64-36.94a.91.91,0,0,1,.91,1.57l-64,36.94A.92.92,0,0,1,113.89,273.31Z" style="fill: rgb(224, 224, 224); transform-origin: 145.862px 253.95px;" id="elnas814xk6ch" class="animable"></path><path d="M113.89,281.81a.91.91,0,0,1-.46-1.69l64-36.94a.91.91,0,0,1,.91,1.57l-64,36.94A.92.92,0,0,1,113.89,281.81Z" style="fill: rgb(224, 224, 224); transform-origin: 145.862px 262.45px;" id="elioay96hlew" class="animable"></path><path d="M113.89,290.31a.89.89,0,0,1-.79-.46.91.91,0,0,1,.33-1.24l64-36.93a.89.89,0,0,1,1.24.33.91.91,0,0,1-.33,1.24l-64,36.94A.92.92,0,0,1,113.89,290.31Z" style="fill: rgb(224, 224, 224); transform-origin: 145.885px 270.931px;" id="eltq79bzuo1mk" class="animable"></path><path d="M113.89,298.74a.91.91,0,0,1-.46-1.7l64-36.94a.91.91,0,0,1,.91,1.58l-64,36.93A.84.84,0,0,1,113.89,298.74Z" style="fill: rgb(224, 224, 224); transform-origin: 145.884px 279.359px;" id="eln7w1u14wgz" class="animable"></path><path d="M103.4,195.29a.91.91,0,0,0-1.24-.33L45.25,227.81v2.1l57.81-33.38A.9.9,0,0,0,103.4,195.29Z" style="fill: rgb(224, 224, 224); transform-origin: 74.3863px 212.374px;" id="elj77bcm9tfis" class="animable"></path><path d="M37.85,233.14a.91.91,0,0,0,.79.45.92.92,0,0,0,.45-.12l2.37-1.37V230l-3.28,1.9A.91.91,0,0,0,37.85,233.14Z" style="fill: rgb(224, 224, 224); transform-origin: 39.5943px 231.795px;" id="eleexreklwins" class="animable"></path><path d="M37.85,241.63a.89.89,0,0,0,.79.46.92.92,0,0,0,.45-.12l2.37-1.37v-2.1l-3.28,1.89A.91.91,0,0,0,37.85,241.63Z" style="fill: rgb(224, 224, 224); transform-origin: 39.5943px 240.295px;" id="elrfcivb0l8q" class="animable"></path><path d="M103.4,203.79a.89.89,0,0,0-1.24-.33L45.25,236.31v2.1L103.06,205A.91.91,0,0,0,103.4,203.79Z" style="fill: rgb(224, 224, 224); transform-origin: 74.3782px 220.871px;" id="elcj6wim7hhfp" class="animable"></path><path d="M38.64,250.77a.91.91,0,0,1-.46-1.69l64-36.94a.91.91,0,1,1,.9,1.58l-64,36.93A.92.92,0,0,1,38.64,250.77Z" style="fill: rgb(224, 224, 224); transform-origin: 70.6561px 231.385px;" id="elz0knhrwxek" class="animable"></path><path d="M38.64,259.27a.91.91,0,0,1-.46-1.69l64-36.94a.9.9,0,1,1,.9,1.57l-64,36.94A.92.92,0,0,1,38.64,259.27Z" style="fill: rgb(224, 224, 224); transform-origin: 70.6376px 239.895px;" id="el6jzigjg853k" class="animable"></path><path d="M38.64,267.77a.91.91,0,0,1-.46-1.7l64-36.93a.9.9,0,1,1,.9,1.57l-64,36.94A.92.92,0,0,1,38.64,267.77Z" style="fill: rgb(224, 224, 224); transform-origin: 70.629px 248.395px;" id="elcc4eoppq95m" class="animable"></path><path d="M38.64,276.66a.91.91,0,0,1-.46-1.69l64-36.94a.91.91,0,1,1,.9,1.58l-64,36.93A.82.82,0,0,1,38.64,276.66Z" style="fill: rgb(224, 224, 224); transform-origin: 70.6561px 257.275px;" id="eln83bif1m0kc" class="animable"></path></g></g></g><path d="M165,114.4c-.41-3.6-1.85-6.12-3.91-7.31s-4.74-1.06-7.63.62l-15.17,8.75c-5.8,3.35-10.72,11.89-11.54,20l-.64,6.44,39.54-22.83Zm-25.78-5.18c1.95,1.12,4.64,1,7.61-.75,5.94-3.44,10.76-11.78,10.76-18.64,0-3.43-1.21-5.84-3.15-7s-4.64-1-7.61.76c-6,3.43-10.76,11.77-10.76,18.63C136.1,105.68,137.3,108.09,139.25,109.22Z" style="fill: rgb(250, 250, 250); transform-origin: 145.88px 112.494px;" id="el6ac6f2kzibc" class="animable"></path><path d="M88.54,314.7c-.41-3.6-1.85-6.12-3.91-7.31S79.9,306.33,77,308l-15.16,8.75c-5.81,3.35-10.73,11.89-11.55,20l-.64,6.44L89.19,320.4Zm-25.78-5.18c1.95,1.12,4.64,1,7.61-.75,5.94-3.43,10.76-11.78,10.76-18.64,0-3.43-1.21-5.84-3.15-7s-4.64-1-7.61.76c-5.94,3.43-10.76,11.77-10.76,18.63C59.61,306,60.81,308.4,62.76,309.52Z" style="fill: rgb(250, 250, 250); transform-origin: 69.42px 312.789px;" id="elqath8c1oatc" class="animable"></path><path d="M40.7,137.51,45,135c.05,3.1.06,4.68.06,8.85v2.19q0,6.48-.07,12.84L42,161.16v2.37l3-1.76h0l.24-.14,7.27-4.2v-2.37l-3.09,1.29c-.05-4.23-.07-8.51-.07-12.78V141.4c0-4.22,0-5.83,0-8.91L53.76,130l.67,6.12,2.29-1.32-.18-9.1-3.06,1.77h0l-4,2.33h0L45,132.34h0l-4,2.32h0l-3.06,1.76-.19,9.31,2.3-1.32Zm16.71,54,47-27.16V158l-47,27.15Zm121.36-52.2-47,27.15v6.4l47-27.16ZM52.62,211.26l51.82-29.9V175L52.62,204.87ZM45.25,232l58.27-33.62V192L45.25,225.63Zm58.27-91.27L37.36,178.92v6.39l66.16-38.16ZM37.36,270.67l66.16-38.16v-6.4L37.36,264.27ZM113,186.33v6.39l66.16-38.16v-6.4Zm0,15.43,66.16-38.17V157.2L113,195.36Zm0,17.76,66.16-38.16V175L113,213.12Zm0,9,66.16-38.16V184L113,222.16Zm0,55.21,66.16-38.16v-6.4L113,277.36Zm0,9.95,66.16-38.17v-6.39L113,287.31Zm-75.65-13,66.16-38.16v-6.39L37.36,274.32Zm7.89-39.83,58.27-33.62v-6.4L45.25,234.48Zm115.08-156-27,15.56v6.71l27-15.56ZM56.89,307.41l27-15.55v-6.71L56.89,300.7Z" style="fill: rgb(224, 224, 224); transform-origin: 108.255px 196.13px;" id="eleo9ks4oy467" class="animable"></path><g id="el9zy49f42fr"><path d="M40.7,137.51,45,135c.05,3.1.06,4.68.06,8.85v2.19q0,6.48-.07,12.84L42,161.16v2.37l3-1.76h0l.24-.14,7.27-4.2v-2.37l-3.09,1.29c-.05-4.23-.07-8.51-.07-12.78V141.4c0-4.22,0-5.83,0-8.91L53.76,130l.67,6.12,2.29-1.32-.18-9.1-3.06,1.77h0l-4,2.33h0L45,132.34h0l-4,2.32h0l-3.06,1.76-.19,9.31,2.3-1.32Zm16.71,54,47-27.16V158l-47,27.15Zm121.36-52.2-47,27.15v6.4l47-27.16ZM52.62,211.26l51.82-29.9V175L52.62,204.87ZM45.25,232l58.27-33.62V192L45.25,225.63Zm58.27-91.27L37.36,178.92v6.39l66.16-38.16ZM37.36,270.67l66.16-38.16v-6.4L37.36,264.27ZM113,186.33v6.39l66.16-38.16v-6.4Zm0,15.43,66.16-38.17V157.2L113,195.36Zm0,17.76,66.16-38.16V175L113,213.12Zm0,9,66.16-38.16V184L113,222.16Zm0,55.21,66.16-38.16v-6.4L113,277.36Zm0,9.95,66.16-38.17v-6.39L113,287.31Zm-75.65-13,66.16-38.16v-6.39L37.36,274.32Zm7.89-39.83,58.27-33.62v-6.4L45.25,234.48Zm115.08-156-27,15.56v6.71l27-15.56ZM56.89,307.41l27-15.55v-6.71L56.89,300.7Z" style="opacity: 0.2; transform-origin: 108.255px 196.13px;" class="animable"></path></g></g></g><g id="freepik--file-cabinet--inject-180" class="animable" style="transform-origin: 335.18px 152.06px;"><g id="freepik--Cabinet--inject-180" class="animable" style="transform-origin: 335.18px 152.06px;"><g id="freepik--cabinet--inject-180" class="animable" style="transform-origin: 335.18px 152.06px;"><polygon points="326.88 244.9 288.15 222.54 288.15 91.16 326.88 113.52 326.88 244.9" style="fill: rgb(224, 224, 224); transform-origin: 307.515px 168.03px;" id="elzw72sx5mvmr" class="animable"></polygon><polygon points="326.88 113.52 382.21 81.58 382.21 212.96 326.88 244.9 326.88 113.52" style="fill: rgb(240, 240, 240); transform-origin: 354.545px 163.24px;" id="el55tkcbwr45m" class="animable"></polygon><polygon points="382.21 81.58 326.88 113.52 288.15 91.16 343.48 59.22 382.21 81.58" style="fill: rgb(250, 250, 250); transform-origin: 335.18px 86.37px;" id="el0nt5z80rkeu" class="animable"></polygon><polygon points="332.41 201.19 376.67 175.63 376.67 206.4 377.69 206.98 333.43 232.54 332.41 231.95 332.41 201.19" style="fill: rgb(224, 224, 224); transform-origin: 355.05px 204.085px;" id="ele9or4jbnigf" class="animable"></polygon><polygon points="333.43 201.78 377.69 176.22 377.69 206.98 333.43 232.54 333.43 201.78" style="fill: rgb(245, 245, 245); transform-origin: 355.56px 204.38px;" id="elkz5vokhiyp" class="animable"></polygon><path d="M350.78,197l7.53-4.34c1-.57,1.77-.31,1.77.57a3.54,3.54,0,0,1-1.77,2.62l-7.53,4.35c-1,.56-1.77.3-1.77-.58A3.55,3.55,0,0,1,350.78,197Z" style="fill: rgb(224, 224, 224); transform-origin: 354.545px 196.426px;" id="el4089blh511i" class="animable"></path><polygon points="332.41 161.04 376.67 135.49 376.67 166.25 377.69 166.84 333.43 192.39 332.41 191.81 332.41 161.04" style="fill: rgb(224, 224, 224); transform-origin: 355.05px 163.94px;" id="elxj3vjl7sk4" class="animable"></polygon><polygon points="333.43 161.63 377.69 136.08 377.69 166.84 333.43 192.39 333.43 161.63" style="fill: rgb(245, 245, 245); transform-origin: 355.56px 164.235px;" id="eltn1jjw0bnks" class="animable"></polygon><path d="M350.78,156.83l7.53-4.35c1-.56,1.77-.3,1.77.58a3.58,3.58,0,0,1-1.77,2.62L350.78,160c-1,.57-1.77.31-1.77-.57A3.53,3.53,0,0,1,350.78,156.83Z" style="fill: rgb(224, 224, 224); transform-origin: 354.545px 156.244px;" id="elg3am172klh" class="animable"></path><polygon points="332.41 120.38 376.67 94.82 376.67 125.58 377.69 126.17 333.43 151.72 332.41 151.13 332.41 120.38" style="fill: rgb(224, 224, 224); transform-origin: 355.05px 123.27px;" id="elbfatljov6jm" class="animable"></polygon><polygon points="333.43 120.96 377.69 95.41 377.69 126.17 333.43 151.72 333.43 120.96" style="fill: rgb(245, 245, 245); transform-origin: 355.56px 123.565px;" id="el2b9950bs2mp" class="animable"></polygon><path d="M350.78,116.16l7.53-4.35c1-.56,1.77-.3,1.77.58a3.58,3.58,0,0,1-1.77,2.62l-7.53,4.34c-1,.57-1.77.31-1.77-.57A3.53,3.53,0,0,1,350.78,116.16Z" style="fill: rgb(224, 224, 224); transform-origin: 354.545px 115.584px;" id="elz64la42mvnb" class="animable"></path></g></g></g><g id="freepik--speech-bubble-2--inject-180" class="animable" style="transform-origin: 222.942px 57.08px;"><g id="freepik--speech-bubble--inject-180" class="animable" style="transform-origin: 222.942px 57.08px;"><g id="freepik--speech-bubble--inject-180" class="animable" style="transform-origin: 222.942px 57.08px;"><path d="M239.45,27l-30,17.36c-.59.34-1.07,1.17-1.07,2.77V82.88a2.31,2.31,0,0,0,1.07,1.86l4.26,2.42a2.36,2.36,0,0,0,2.15,0l30-17.36a2.36,2.36,0,0,0,1.07-1.85V31.26a2.33,2.33,0,0,0-1.07-1.84L241.59,27A2.34,2.34,0,0,0,239.45,27Z" style="fill: rgb(230, 230, 230); transform-origin: 227.655px 57.08px;" id="elgejuy7g9p7u" class="animable"></path><g id="elv2def5c20v8"><path d="M215.85,87.15a2.46,2.46,0,0,1-2.15,0l-4.26-2.43a2.28,2.28,0,0,1-1.07-1.86V47.14a4,4,0,0,1,.37-2l6.36,3.66a1.91,1.91,0,0,0-.32,1V86.54C214.78,87.18,215.22,87.52,215.85,87.15Z" style="opacity: 0.15; transform-origin: 212.105px 66.2687px;" class="animable"></path></g><path d="M205.43,73.42c-.67-.4-5.8-3.29-6-3.39a1,1,0,0,1-.21-1.53l9.12-10.44,6.41,3.67-9.53,10.19A1,1,0,0,0,205.43,73.42Z" style="fill: rgb(230, 230, 230); transform-origin: 206.852px 65.74px;" id="eltow4iyp1ew" class="animable"></path><path d="M245.86,30.64,215.85,48a2.4,2.4,0,0,0-1.07,1.86V61.74l-9.53,10.18a1,1,0,0,0,.61,1.64l8.92-.65h0V86.54c0,.68.48,1,1.07.61l30-17.36a2.36,2.36,0,0,0,1.07-1.85V31.26C246.93,30.58,246.45,30.3,245.86,30.64Z" style="fill: rgb(250, 250, 250); transform-origin: 225.965px 58.907px;" id="elm8rrtoed24" class="animable"></path><path d="M246.18,31.33V67.94a1.65,1.65,0,0,1-.69,1.21l-30,17.32V72.1l-.8.06-8.84.64a.23.23,0,0,1-.17-.14s0-.11.07-.23l9.54-10.18.2-.22V49.86a1.66,1.66,0,0,1,.7-1.21l30-17.32m.16-.83a1.08,1.08,0,0,0-.48.14L215.85,48a2.4,2.4,0,0,0-1.07,1.86V61.74l-9.53,10.18a1,1,0,0,0,.61,1.64l8.92-.65h0V86.54c0,.48.24.76.59.76a1,1,0,0,0,.48-.15l30-17.36a2.36,2.36,0,0,0,1.07-1.85V31.26c0-.48-.24-.76-.59-.76Z" style="fill: rgb(224, 224, 224); transform-origin: 225.964px 58.9px;" id="elyeyprvnqbng" class="animable"></path></g><path d="M233.58,58l5.91-11.29c.83-1.58.83-3.36,0-4s-2.15.15-3,1.72L230.6,55.7l-5.91-4.47c-.69-.52-1.82.12-2.51,1.45s-.69,2.82,0,3.34l5.91,4.47-5.91,11.29c-.82,1.58-.82,3.36,0,4s2.16-.15,3-1.72l5.91-11.3L237,67.21c.69.53,1.81-.12,2.5-1.45h0c.7-1.32.7-2.82,0-3.34Z" style="fill: rgb(224, 224, 224); transform-origin: 230.839px 59.245px;" id="ela3cqykr9jx8" class="animable"></path></g></g><g id="freepik--Stamp--inject-180" class="animable" style="transform-origin: 351.3px 278.111px;"><g id="freepik--stamp--inject-180" class="animable" style="transform-origin: 351.3px 278.111px;"><path d="M294.11,219.78c3.84-2.22,7.31-2.43,9.84-1s16.95,9.79,19.47,11.25,4.08,4.58,4.08,9c0,8.89-6.24,19.7-13.94,24.14-3.85,2.23-7.33,2.44-9.85,1L284.25,253c-2.52-1.46-4.08-4.58-4.08-9C280.17,235,286.41,224.22,294.11,219.78Z" style="fill: rgb(55, 71, 79); transform-origin: 303.835px 241.479px;" id="elgufteioue76" class="animable"></path><path d="M313.56,231c-7.7,4.45-13.94,15.26-13.94,24.15s6.24,12.49,13.94,8S327.5,248,327.5,239.06,321.26,226.57,313.56,231Z" style="fill: rgb(38, 50, 56); transform-origin: 313.56px 247.09px;" id="el7n16mmd434y" class="animable"></path><path d="M304.61,254.1c0,3.46,1.24,5.86,3.25,6.89l61,31v0l.64.32c1.52.62,3.5.38,5.65-.87a15.38,15.38,0,0,0,4.39-3.91,19,19,0,0,0,4.35-11.22c0-2.71-.93-4.63-2.45-5.57-22.43-13.59-44.36-26.87-58.78-35.54-1.92-1.18-4.6-1.07-7.57.65-3.86,2.22-7.23,6.57-9.05,11.2A19.23,19.23,0,0,0,304.61,254.1Z" style="fill: rgb(69, 90, 100); transform-origin: 344.25px 263.529px;" id="elgex2lqxgssa" class="animable"></path><path d="M304.61,254.1c0,3.46,1.24,5.86,3.25,6.89l61,31v0l.64.32c1.52.62,3.5.38,5.65-.87a15.38,15.38,0,0,0,4.39-3.91l-73.5-40.48A19.23,19.23,0,0,0,304.61,254.1Z" style="fill: rgb(55, 71, 79); transform-origin: 342.075px 269.844px;" id="el621j023rnb" class="animable"></path><g id="elbp36q5z8a2m"><path d="M381.46,270.8l-34.12-20.66-28.49,16.45,50,25.44v0l.64.32c1.52.62,3.5.38,5.65-.87a15.38,15.38,0,0,0,4.39-3.91,19,19,0,0,0,4.35-11.22C383.91,273.66,383,271.74,381.46,270.8Z" style="opacity: 0.2; transform-origin: 351.365px 271.409px;" class="animable"></path></g><path d="M303.84,289.32a12.12,12.12,0,0,1,5.49-9.51l88.33-51a3.89,3.89,0,0,1,3.83-.41c1,.56,13.76,7.95,14.75,8.52a3.85,3.85,0,0,1,1.62,3.56v34a12.14,12.14,0,0,1-5.49,9.51L324,335a3.86,3.86,0,0,1-3.88.39l-14.72-8.49a3.88,3.88,0,0,1-1.6-3.56Z" style="fill: rgb(69, 90, 100); transform-origin: 360.83px 281.908px;" id="elak5pq8j212c" class="animable"></path><path d="M303.84,289.32v34a3.88,3.88,0,0,0,1.6,3.56l14.72,8.49a2.86,2.86,0,0,0,1.61.35V293.63l-16.45-9.5A11.09,11.09,0,0,0,303.84,289.32Z" style="fill: rgb(38, 50, 56); transform-origin: 312.794px 309.929px;" id="elm62ua1lhscs" class="animable"></path><path d="M412.37,237.31l-88.33,51a12.12,12.12,0,0,0-5.49,9.5v34.05c0,3.5,2.46,4.92,5.49,3.16l88.33-51a12.14,12.14,0,0,0,5.49-9.51v-34C417.86,237,415.4,235.56,412.37,237.31Z" id="elj6ptbby7kj" class="animable" style="transform-origin: 368.205px 286.17px;"></path><path d="M321,299.25a12.12,12.12,0,0,1,5.49-9.5l88.33-51a3.87,3.87,0,0,1,3.83-.41c1,.56,1.13.62,2.12,1.19a3.86,3.86,0,0,1,1.62,3.56v34a12.14,12.14,0,0,1-5.49,9.51l-88.33,51a3.87,3.87,0,0,1-3.89.38c-1-.57-1.08-.6-2.07-1.17a3.85,3.85,0,0,1-1.61-3.56Z" style="fill: rgb(69, 90, 100); transform-origin: 371.694px 288.174px;" id="elatp0hwzd0ml" class="animable"></path><path d="M321,299.25v34a3.85,3.85,0,0,0,1.61,3.56c1,.57,1.08.6,2.07,1.17a2.9,2.9,0,0,0,1.62.36V296.24l-3.81-2.17A11.07,11.07,0,0,0,321,299.25Z" style="fill: rgb(38, 50, 56); transform-origin: 323.639px 316.209px;" id="elnudf6y9z5i" class="animable"></path><path d="M416.94,239.92l-88.33,51a12.12,12.12,0,0,0-5.49,9.51v34c0,3.5,2.45,4.92,5.49,3.17l88.33-51a12.14,12.14,0,0,0,5.49-9.51v-34C422.43,239.59,420,238.17,416.94,239.92Z" style="fill: rgb(55, 71, 79); transform-origin: 372.775px 288.76px;" id="ely8veqqh6jmd" class="animable"></path><path d="M414,252.42a.88.88,0,0,0-.93.07L332.47,299a3.43,3.43,0,0,0-1.43,2.73V324a1.27,1.27,0,0,0,.49,1.15l1.31.76a.9.9,0,0,0,.94-.07l80.61-46.54a3.43,3.43,0,0,0,1.43-2.73V254.33a1.26,1.26,0,0,0-.49-1.15Zm-37.55,31.47a8.71,8.71,0,0,1,.77-3.62,6,6,0,0,1,.92-1.34v.85a1.93,1.93,0,0,0-.63,1.37c0,.51,0,1,0,1.52l0,1.48-1.08.62C376.45,284.45,376.45,284.14,376.46,283.89Zm-37.89,33.66-1.13.66v-12l1.13-.65Zm2.28-15.88-5.67,3.27v-1.36l5.67-3.27Zm3.39,12.62-1.13.64v-1.35l1.13-.65Zm0-7.44-1,.55V306l1-.55Zm0-7.14-1.13.65V299l1.13-.65Zm3.55,12.53-1.14.65V297l1.14-.66Zm5.48-17.74h0a2,2,0,0,0-1.06,1.81,32.13,32.13,0,0,0,0,3.4c0,.78.38,1,1.06.59h0v2.88h0l-1.23,6.6-.87.5,1.18-5.65c-.81-.15-1.23-1.12-1.28-2.91,0-.4,0-.75,0-1.06v-.91c0-.31,0-.67,0-1.09a8.2,8.2,0,0,1,.87-3.77,5.83,5.83,0,0,1,1.35-1.58ZM356.79,307l-1.14.66V291.77l1.14-.66Zm4.83-2.6a3.79,3.79,0,0,1-1.38.45,5.68,5.68,0,0,1-.4-2.26c0-.34,0-.74,0-1.18s0-.84,0-1.2l1.12-.64c0,.31,0,.64,0,1,0,.79.24,1.16.64,1.1Zm0-15.09a2.44,2.44,0,0,0-.57,1.75c0,.4,0,.83,0,1.28s0,.88,0,1.28l-1.16.67c0-.31,0-.61,0-.88a8.47,8.47,0,0,1,.77-3.57,6.12,6.12,0,0,1,.94-1.38Zm4.19,5.22c0,1,0,2,0,3.11a8.56,8.56,0,0,1-.76,3.65,5.8,5.8,0,0,1-1,1.4v-.88a2.49,2.49,0,0,0,.62-1.81q.09-4.8,0-9.49c0-.79-.21-1.14-.62-1.07v-2.74a3.55,3.55,0,0,1,1.35-.42,5.08,5.08,0,0,1,.41,2.2c0,1.09,0,2.12,0,3.1Zm4,5-1.12.65v-1.36l1.12-.64Zm0-7.44-1,.56V291.3l1-.55Zm0-7.13-1.12.65v-1.36l1.12-.65Zm3.55,12.52-1.14.66V282.22l1.14-.66Zm8.94-9.33a8.82,8.82,0,0,1-.77,3.65,5.76,5.76,0,0,1-.94,1.35v-.86a2.12,2.12,0,0,0,.66-1.39c0-.45,0-.93,0-1.45s0-1,0-1.54l1.05-.61C382.27,287.61,382.27,287.9,382.26,288.16Zm.07-7.54a9.31,9.31,0,0,1-.54,3,6.32,6.32,0,0,1-1.79,2.47l-1.5,1.32a2.94,2.94,0,0,0-.66.87,2.78,2.78,0,0,0-.29,1,11.65,11.65,0,0,0,0,2.21c.05.47.25.69.6.65v2.75a3.93,3.93,0,0,1-1.31.42,5.6,5.6,0,0,1-.43-2.26c0-.24,0-.51,0-.78a7,7,0,0,1,0-.8,8.63,8.63,0,0,1,.64-3.15,7,7,0,0,1,2-2.62l1.32-1.14a2.16,2.16,0,0,0,.61-.84,3.17,3.17,0,0,0,.23-.93,14.08,14.08,0,0,0,0-2.25c-.05-.46-.26-.67-.64-.62v-2.74a3.78,3.78,0,0,1,1.35-.43,5.46,5.46,0,0,1,.43,2.22C382.34,279.48,382.34,280,382.33,280.62Zm8.95-8.07h0a2.06,2.06,0,0,0-1.07,1.81c0,.55,0,1.18,0,1.9s0,1.33,0,1.85c0,.78.39,1,1.07.59h0v2.88h0a4.64,4.64,0,0,1-1.82.69,5.44,5.44,0,0,1-.38-2.15c0-.6,0-1.17,0-1.69s0-1.1,0-1.72a8.2,8.2,0,0,1,.87-3.77,6,6,0,0,1,1.34-1.58Zm3.54,12.53-1.14.66V269.81l1.14-.66Zm5-17.81a2.41,2.41,0,0,0-.62,1.8q-.18,4.85,0,9.49c0,.8.21,1.17.62,1.1v2.73a3.72,3.72,0,0,1-1.31.41,5.57,5.57,0,0,1-.42-2.25c0-1.07,0-2.08-.06-3.05s0-1.95,0-2.94,0-2,.06-3.15a8.76,8.76,0,0,1,.77-3.63,5.7,5.7,0,0,1,1-1.36Zm4.2,5.23q0,1.47,0,3.12a8.6,8.6,0,0,1-.76,3.66,5.77,5.77,0,0,1-1,1.42v-.9a2.43,2.43,0,0,0,.62-1.81q.17-4.85,0-9.49c0-.78-.21-1.14-.62-1.07v-2.74a4,4,0,0,1,1.4-.46,5.65,5.65,0,0,1,.39,2.25c0,1.08,0,2.11,0,3.08S404,271.51,404,272.5Zm5.71,4-1.13.66V265.08l1.13-.66ZM412,260.58l-5.67,3.28V262.5l5.67-3.28Zm5.4-15a2.14,2.14,0,0,0-2.2.18l-84.87,49a8.07,8.07,0,0,0-3.38,6.45v28a3,3,0,0,0,1.16,2.72l1.33.77a2.14,2.14,0,0,0,2.2-.18l84.87-49a8.11,8.11,0,0,0,3.38-6.46v-28a3,3,0,0,0-1.17-2.72ZM328.6,299.92a4.49,4.49,0,0,1,1.19-2.55A8.88,8.88,0,0,0,328.6,299.92ZM417,277.26a4.23,4.23,0,0,1-1.76,3.37l-84.87,49a1.42,1.42,0,0,1-.34.15,2.22,2.22,0,0,1-.11-.72v-28a4.25,4.25,0,0,1,1.76-3.38l84.87-49a1.42,1.42,0,0,1,.34-.15,2.22,2.22,0,0,1,.11.72Z" style="fill: rgb(159, 155, 162); transform-origin: 373.42px 289.14px;" id="el1haek1v7vbmh" class="animable"></path><path d="M328.27,330V302a8.1,8.1,0,0,1,3.38-6.46l84.87-49c1.87-1.08,3.38.07,3.38,2.55v28a8.11,8.11,0,0,1-3.38,6.46l-84.87,49C329.79,333.62,328.27,332.47,328.27,330Zm3.38-32.3a4.25,4.25,0,0,0-1.76,3.38v28c0,1.3.79,1.9,1.76,1.34l84.87-49a4.24,4.24,0,0,0,1.77-3.38V250c0-1.3-.79-1.9-1.77-1.34Z" style="fill: rgb(38, 50, 56); transform-origin: 374.085px 289.542px;" id="elkk8cwh6wut" class="animable"></path><path d="M332.35,302.52v22.23c0,1.05.64,1.54,1.43,1.08l80.61-46.54a3.43,3.43,0,0,0,1.43-2.73V254.33c0-1.05-.64-1.53-1.43-1.08l-80.61,46.54A3.43,3.43,0,0,0,332.35,302.52Zm13.2,5.09-2.27,1.31V306l2.27-1.31Zm17.39-17.5a2.49,2.49,0,0,0-.58,1.75c0,.4,0,.83,0,1.28s0,.88,0,1.28l-2.45,1.42c0-.36,0-.75,0-1.19s0-.84,0-1.2a8.47,8.47,0,0,1,.77-3.57,6.53,6.53,0,0,1,2.26-2.52Zm8.15,2.76-2.28,1.31V291.3l2.28-1.31Zm8.38-12.33a1.94,1.94,0,0,0-.64,1.37c0,.51,0,1,0,1.52s0,1,0,1.48l-2.36,1.37c0-.38,0-.79,0-1.24s0-.83,0-1.15a8.71,8.71,0,0,1,.77-3.62,6.44,6.44,0,0,1,2.24-2.46Zm29.13-15.46,2.45-1.42v13.57l-2.45,1.42Zm-2.26-2.58,7-4v2.88l-7,4Zm-4.14,2.19c1.08-.54,1.87-.62,2.35-.21s.73,1.32.76,2.76c0,1.08,0,2.11,0,3.08s0,2,0,2.94,0,2,0,3.12a8.57,8.57,0,0,1-.76,3.66,6.55,6.55,0,0,1-2.35,2.5V279.8a2.43,2.43,0,0,0,.62-1.81q.17-4.85,0-9.49c0-.78-.21-1.14-.62-1.07ZM398,274.56q0-1.49.06-3.15a8.76,8.76,0,0,1,.77-3.63,6.48,6.48,0,0,1,2.27-2.47V268a2.53,2.53,0,0,0-.62,1.8c-.11,3.23-.11,6.4,0,9.49,0,.81.22,1.17.62,1.11v2.72c-1,.51-1.79.56-2.27.15s-.73-1.33-.77-2.75c0-1.07,0-2.08-.06-3.05S398,275.55,398,274.56Zm-4.35-4.75,2.46-1.42v17.45l-2.46,1.42ZM389,278.44c0-.52,0-1.1,0-1.72a8.2,8.2,0,0,1,.87-3.77,6.72,6.72,0,0,1,2.65-2.51h0v2.88h0a2,2,0,0,0-1.07,1.81c0,.55,0,1.18,0,1.9s0,1.33,0,1.86c0,.78.39,1,1.07.58h0v2.88h0c-1.23.71-2.11.89-2.65.54s-.83-1.27-.87-2.76C389.05,279.53,389,279,389,278.44Zm-8.49,13.86a2.12,2.12,0,0,0,.66-1.39c0-.45,0-.93,0-1.45s0-1,0-1.54l2.3-1.33c0,.32.06.71.07,1.15v1.19a9,9,0,0,1-.77,3.64,6.53,6.53,0,0,1-2.26,2.47Zm-4.16,0a7,7,0,0,1,0-.8,8.63,8.63,0,0,1,.64-3.15,7,7,0,0,1,2-2.62l1.32-1.14a2.16,2.16,0,0,0,.61-.84,3.17,3.17,0,0,0,.23-.93,14.08,14.08,0,0,0,0-2.25c-.05-.46-.26-.67-.64-.62v-2.74c1.05-.52,1.82-.58,2.3-.17s.75,1.31.79,2.73c0,.49,0,1,0,1.63a8.8,8.8,0,0,1-.54,3,6.19,6.19,0,0,1-1.78,2.47l-1.51,1.33a2.6,2.6,0,0,0-.65.86,2.84,2.84,0,0,0-.29,1,11.65,11.65,0,0,0,0,2.21c0,.47.25.69.6.65v2.75c-1,.51-1.8.57-2.28.15s-.73-1.32-.78-2.75C376.4,292.82,376.39,292.55,376.39,292.28Zm-4.21-10.06,2.46-1.42v17.46l-2.46,1.41Zm-3.53,16.61,2.44-1.4v2.88l-2.44,1.4Zm0-14.57,2.44-1.41v2.88l-2.44,1.41ZM364,286.74q1.56-.76,2.31-.15c.49.41.75,1.31.76,2.69,0,1.09,0,2.12,0,3.11v2.94c0,1,0,2,0,3.11a8.56,8.56,0,0,1-.75,3.65,6.44,6.44,0,0,1-2.32,2.49v-2.73a2.49,2.49,0,0,0,.62-1.81q.09-4.8,0-9.49c0-.79-.21-1.14-.62-1.07Zm-4.19,14.71c0-.44,0-.84,0-1.2l2.46-1.42c0,.5,0,.93,0,1.31s0,.78,0,1.25c0,.78.23,1.15.64,1.09v2.73c-1.08.53-1.86.59-2.34.19s-.73-1.33-.76-2.77C359.83,302.29,359.83,301.89,359.83,301.45Zm-4.18-9.68,2.45-1.42V307.8l-2.45,1.42ZM350.79,312l1.54-7.38c-.81-.15-1.23-1.12-1.28-2.91,0-.4,0-.75,0-1.06v-.91c0-.31,0-.67,0-1.09a8.2,8.2,0,0,1,.87-3.77,6.79,6.79,0,0,1,2.65-2.51h0v2.88h0a2.06,2.06,0,0,0-1.07,1.81c-.05,1.17-.05,2.3,0,3.41,0,.78.39,1,1.07.58h0v2.88h0l-1.23,6.6ZM346.65,297l2.45-1.42V313l-2.45,1.41Zm-3.54,16.62,2.44-1.41v2.88l-2.44,1.41Zm0-14.58,2.44-1.41v2.88l-2.44,1.41Zm-5.67,7.16,2.45-1.41v13.57l-2.45,1.41Zm-2.26-2.58,7-4v2.88l-7,4Z" style="fill: rgb(38, 50, 56); transform-origin: 374.085px 289.542px;" id="elw74c7skt77a" class="animable"></path></g></g><g id="freepik--Folder--inject-180" class="animable" style="transform-origin: 173.429px 246.638px;"><g id="freepik--folder--inject-180" class="animable" style="transform-origin: 173.429px 246.638px;"><g id="freepik--folder--inject-180" class="animable" style="transform-origin: 173.429px 246.638px;"><polygon points="80.78 411.01 67.45 403.31 280.7 280.19 294.03 287.89 80.78 411.01" style="fill: rgb(159, 155, 162); transform-origin: 180.74px 345.6px;" id="elkvg4l8kwh0s" class="animable"></polygon><g id="el5y9lgxpj5mw"><polygon points="80.78 411.01 67.45 403.31 280.7 280.19 294.03 287.89 80.78 411.01" style="opacity: 0.35; transform-origin: 180.74px 345.6px;" class="animable"></polygon></g><path d="M280.33,274.74a9.6,9.6,0,0,1-4.36,8.19L86.57,392.27,81.79,395l-13,7.52a10.65,10.65,0,0,1-1.67-4.69L54.15,206.33a13.46,13.46,0,0,1,0-1.68l0-.44c0-.15,0-.28,0-.41s0-.25.06-.36,0-.31.07-.45c.06-.3.12-.59.2-.86a1.82,1.82,0,0,1,.07-.25l.09-.31.18-.46A3.15,3.15,0,0,1,56,199.59c1.23-.71,2.56-3.71,3-6.7l1.6-11.48a12.59,12.59,0,0,1,5.49-8.15l61.61-35.56a4.29,4.29,0,0,1,6.48,2.44l2.29,6.81a4.3,4.3,0,0,0,6.49,2.45L262.3,80.49c2.61-1.52,4.9-.3,5.11,2.71Z" style="fill: rgb(159, 155, 162); transform-origin: 167.227px 241.178px;" id="elidk6o3ipn5a" class="animable"></path><path d="M265.7,80.12a3.25,3.25,0,0,0-2.79.06l-.31.14-.3.17L142.93,149.4a5.21,5.21,0,0,1-1,.45c-.14,0-.29.09-.44.12l-.13,0a4.21,4.21,0,0,1-4.69-2.54,4.9,4.9,0,0,0,1.82-.61L257.86,77.92a3.46,3.46,0,0,1,3.51-.3Z" style="fill: rgb(159, 155, 162); transform-origin: 201.185px 113.661px;" id="elpjiowrqoxih" class="animable"></path><g id="el8k263y5sk5u"><path d="M265.7,80.12a3.25,3.25,0,0,0-2.79.06l-.31.14-.3.17L142.93,149.4a5.21,5.21,0,0,1-1,.45c-.14,0-.29.09-.44.12l-.13,0a4.21,4.21,0,0,1-4.69-2.54,4.9,4.9,0,0,0,1.82-.61L257.86,77.92a3.46,3.46,0,0,1,3.51-.3Z" style="fill: rgb(255, 255, 255); opacity: 0.5; transform-origin: 201.185px 113.661px;" class="animable"></path></g><path d="M127.66,135a4.31,4.31,0,0,0-4.43.12L61.61,170.69a11.9,11.9,0,0,0-3.84,4l4.45,2.57a11.72,11.72,0,0,1,3.84-4l61.61-35.56a.19.19,0,0,1,.1,0,4.34,4.34,0,0,1,4.36-.09Z" style="fill: rgb(159, 155, 162); transform-origin: 94.95px 155.853px;" id="elxz47yjptesi" class="animable"></path><g id="els5yf4rktckg"><path d="M127.66,135a4.31,4.31,0,0,0-4.43.12L61.61,170.69a11.9,11.9,0,0,0-3.84,4l4.45,2.57a11.72,11.72,0,0,1,3.84-4l61.61-35.56a.19.19,0,0,1,.1,0,4.34,4.34,0,0,1,4.36-.09Z" style="fill: rgb(255, 255, 255); opacity: 0.5; transform-origin: 94.95px 155.853px;" class="animable"></path></g><path d="M56.13,178.85l-1.6,11.48c-.41,3-1.75,6-3,6.69a3.14,3.14,0,0,0-1.13,1.52l4.44,2.57s.15-.33.21-.44l.13-.23a2.26,2.26,0,0,1,.79-.85c1.23-.71,2.56-3.71,3-6.7l1.6-11.48a11.19,11.19,0,0,1,1.65-4.18l-4.45-2.57A11.31,11.31,0,0,0,56.13,178.85Z" style="fill: rgb(159, 155, 162); transform-origin: 56.31px 187.885px;" id="el0bix3di1jsmf" class="animable"></path><g id="el12tpigcky2a"><path d="M56.13,178.85l-1.6,11.48c-.41,3-1.75,6-3,6.69a3.14,3.14,0,0,0-1.13,1.52l4.44,2.57s.15-.33.21-.44l.13-.23a2.26,2.26,0,0,1,.79-.85c1.23-.71,2.56-3.71,3-6.7l1.6-11.48a11.19,11.19,0,0,1,1.65-4.18l-4.45-2.57A11.31,11.31,0,0,0,56.13,178.85Z" style="opacity: 0.15; transform-origin: 56.31px 187.885px;" class="animable"></path></g><path d="M281.44,95.62a3.56,3.56,0,0,0-1.58-3L275.42,90a3.49,3.49,0,0,0-3.53.29L68.11,208a9.57,9.57,0,0,0-4.36,8.19L75.67,392.9a3.59,3.59,0,0,0,1.56,3l4.46,2.57a3.47,3.47,0,0,0,3.53-.29L289,280.53a9.59,9.59,0,0,0,4.37-8.19Z" style="fill: rgb(255, 255, 255); transform-origin: 178.56px 244.237px;" id="el9b49pi92pw7" class="animable"></path><path d="M81.69,398.48l-4.45-2.58a3.55,3.55,0,0,1-1.57-3L63.74,216.18a8.59,8.59,0,0,1,.83-4L69,214.73a8.56,8.56,0,0,0-.81,4L80.11,395.46A3.54,3.54,0,0,0,81.69,398.48Z" style="fill: rgb(224, 224, 224); transform-origin: 72.7123px 305.33px;" id="elwugmkly3g" class="animable"></path><path d="M72.56,210.55,276.34,92.9c2.61-1.51,4.9-.29,5.1,2.72l11.93,176.72a9.59,9.59,0,0,1-4.37,8.19L85.22,398.18c-2.62,1.51-4.9.29-5.1-2.72L68.19,218.74A9.57,9.57,0,0,1,72.56,210.55Z" style="fill: rgb(240, 240, 240); transform-origin: 180.78px 245.54px;" id="elbtepmqmstxh" class="animable"></path><path d="M79.44,229.32a7.64,7.64,0,0,0-.29,2V405.13c0,2.9-2.28,3.55-5.09,2.15L71.49,406v4.77L78.84,415c2.81,1.39,5.09.17,5.09-2.73V233.66a7.71,7.71,0,0,1,.29-2Z" style="fill: rgb(159, 155, 162); transform-origin: 77.855px 322.447px;" id="elk93ns8fe9nd" class="animable"></path><g id="eleosgvsr257l"><path d="M79.44,229.32a7.64,7.64,0,0,0-.29,2V405.13c0,2.9-2.28,3.55-5.09,2.15L71.49,406v4.77L78.84,415c2.81,1.39,5.09.17,5.09-2.73V233.66a7.71,7.71,0,0,1,.29-2Z" style="opacity: 0.25; transform-origin: 77.855px 322.447px;" class="animable"></path></g><path d="M295.57,107.18a3.61,3.61,0,0,0-3.11.5l-.06,0L88.67,225.65a10.55,10.55,0,0,0-4.44,6l-4.79-2.36a10.62,10.62,0,0,1,4.44-6l203.79-118a3.47,3.47,0,0,1,3.3-.43Z" style="fill: rgb(159, 155, 162); transform-origin: 187.505px 168.137px;" id="el73zrcn75aeb" class="animable"></path><g id="el2mjfg4euvq5"><path d="M295.57,107.18a3.61,3.61,0,0,0-3.11.5l-.06,0L88.67,225.65a10.55,10.55,0,0,0-4.44,6l-4.79-2.36a10.62,10.62,0,0,1,4.44-6l203.79-118a3.47,3.47,0,0,1,3.3-.43Z" style="fill: rgb(255, 255, 255); opacity: 0.5; transform-origin: 187.505px 168.137px;" class="animable"></path></g><path d="M88.67,225.65a10.35,10.35,0,0,0-4.74,8V412.34c0,2.65-2,3.86-4.49,2.92a11.58,11.58,0,0,0,4.49.73,10.26,10.26,0,0,0,4.72-1.17l203.8-117.69a10.25,10.25,0,0,0,4.74-8V110.22c0-2.91-2.12-4-4.73-2.54Z" style="fill: rgb(159, 155, 162); transform-origin: 188.315px 261.516px;" id="elab93ybpetst" class="animable"></path><path d="M88.67,225.65a10.35,10.35,0,0,0-4.74,8V412.34c0,2.65-2,3.86-4.49,2.92a11.58,11.58,0,0,0,4.49.73,10.26,10.26,0,0,0,4.72-1.17l203.8-117.69a10.25,10.25,0,0,0,4.74-8V110.22c0-2.91-2.12-4-4.73-2.54Z" style="fill: rgb(159, 155, 162); transform-origin: 188.315px 261.516px;" id="elo068rwv8vpe" class="animable"></path><g id="elkrzx221v5ci"><path d="M88.67,225.65a10.35,10.35,0,0,0-4.74,8V412.34c0,2.65-2,3.86-4.49,2.92a11.58,11.58,0,0,0,4.49.73,10.26,10.26,0,0,0,4.72-1.17l203.8-117.69a10.25,10.25,0,0,0,4.74-8V110.22c0-2.91-2.12-4-4.73-2.54Z" style="fill: rgb(255, 255, 255); opacity: 0.3; transform-origin: 188.315px 261.516px;" class="animable"></path></g><path d="M75.06,407.71l-2.88-1.66a11.46,11.46,0,0,1-5.1-8.19L54.15,206.33a12.28,12.28,0,0,1,.72-5.22l-4.44-2.56a11.93,11.93,0,0,0-.72,5.21L63,400.63a11.46,11.46,0,0,0,5.1,8.19l7,4Z" style="fill: rgb(159, 155, 162); transform-origin: 62.3835px 305.685px;" id="elvzywu63a1sq" class="animable"></path><g id="elprn6ioz498g"><path d="M75.06,407.71l-2.88-1.66a11.46,11.46,0,0,1-5.1-8.19L54.15,206.33a12.28,12.28,0,0,1,.72-5.22l-4.44-2.56a11.93,11.93,0,0,0-.72,5.21L63,400.63a11.46,11.46,0,0,0,5.1,8.19l7,4Z" style="opacity: 0.25; transform-origin: 62.3835px 305.685px;" class="animable"></path></g></g><path id="freepik--Clip--inject-180" d="M258.7,119.22h0a2.49,2.49,0,0,0-1,2v1.52l2.07-1.19V120C259.73,119.23,259.27,118.89,258.7,119.22Zm13.94-16.51c0-3.54-1.56-5.45-4-5.08-3.87.6-7.5,6.38-7.51,12.1,0,10.16,0,20.29,0,30.43a12.84,12.84,0,0,0,.07,1.54c.28,2.45,1.94,3.41,3.91,2.29a8.76,8.76,0,0,0,3.92-6.74c.12-7.41.1-15,.1-22.7,0-.75-.46-1.1-1-.78a2.48,2.48,0,0,0-1,2c0,7.2,0,14.13,0,20.91,0,2.28-.74,3.92-2,4.6s-1.88-.13-1.88-2.33q0-15.09,0-30.23c0-3.34,1.54-6.43,3.71-7.66s3.65.15,3.65,3.49q0,5.35,0,10.7l2.06-1.19C272.65,110.24,272.65,106.48,272.64,102.71Z" style="fill: rgb(55, 71, 79); transform-origin: 265.185px 121.02px;" class="animable"></path><path d="M254.49,243l-126,98.52c-2.76,2.17-5.36,1.13-5.78-2.32l-4.78-38.81a12.4,12.4,0,0,1,4.25-10.17l126-98.52c2.77-2.16,5.36-1.12,5.79,2.32l4.78,38.81A12.41,12.41,0,0,1,254.49,243Zm-132,50.2a6.49,6.49,0,0,0-2.22,5.32l4.78,38.81c.22,1.8,1.58,2.35,3,1.21l126-98.52a6.45,6.45,0,0,0,2.22-5.32l-4.78-38.8c-.22-1.81-1.58-2.35-3-1.22Z" style="fill: rgb(69, 90, 100); transform-origin: 188.34px 266.613px;" id="elve8u0rd12l" class="animable"></path><path d="M245.94,201.76l-119.7,93.57a5.26,5.26,0,0,0-1.79,4.3l3.79,30.82c.18,1.46,1.28,1.9,2.45,1l119.7-93.58a5.24,5.24,0,0,0,1.8-4.3l-3.8-30.81C248.21,201.28,247.12,200.84,245.94,201.76Zm-15.47,29.92,3.38-2.64.49,4L231,235.67Zm-27.07,10c1.53-1,2.71-1.35,3.56-.93s1.41,1.57,1.68,3.43c.08.48.15,1,.22,1.65s.12,1.18.17,1.7l-3.65,2.85c0-.58-.11-1.19-.18-1.82s-.15-1.23-.23-1.77c-.14-1.05-.51-1.49-1.1-1.3Zm-10.84,19.62,3.37-2.64.5,4-3.38,2.64Zm-13.71-.43c1.54-1.06,2.72-1.39,3.53-1s1.37,1.57,1.68,3.52c.07.42.14.94.21,1.58s.11,1.23.16,1.78l-3.5,2.74q-.1-1.08-.21-2.13c-.08-.7-.17-1.39-.28-2.07s-.48-.91-1.12-.65Zm-40.23,58.28L135,322l-2.32-18.81,3.65-2.85Zm.86-22.82-10.37,8.11-.5-4L139,292.35Zm6.09-5.28a3.45,3.45,0,0,0-.68,2.7q.56,6.78,1.62,13.16.23,1.65,1.17,1.29l.47,3.8c-1.63,1.15-2.85,1.52-3.68,1.13s-1.39-1.58-1.68-3.57c-.21-1.5-.4-2.92-.58-4.27s-.34-2.7-.5-4.07-.32-2.81-.48-4.34a11.16,11.16,0,0,1,.58-5.32,11.4,11.4,0,0,1,3.29-4.31Zm7.5,5.77c.15,1.37.3,2.82.43,4.36a11.54,11.54,0,0,1-.59,5.32,11.21,11.21,0,0,1-3.18,4.26l-.47-3.78a3.52,3.52,0,0,0,.68-2.75q-.56-6.78-1.62-13.16c-.15-1.09-.54-1.51-1.17-1.27l-.47-3.78c1.57-1.08,2.76-1.42,3.58-1s1.38,1.56,1.68,3.52c.24,1.48.45,2.9.63,4.24S152.92,295.48,153.07,296.84Zm7.69,5-3.64,2.85-3-24.2,3.64-2.85Zm5.18-18.94a10.93,10.93,0,0,1-.73,5.53,12.18,12.18,0,0,1-3.77,4.45l0,0-.49-4,0,0a3.21,3.21,0,0,0,1.38-2.9c-.05-.78-.14-1.66-.26-2.66s-.25-1.84-.38-2.54c-.19-1.07-.78-1.22-1.79-.43l0,0-.49-4,0,0c1.82-1.42,3.18-2,4.1-1.71s1.54,1.46,1.85,3.52c.13.83.24,1.61.33,2.33S165.86,282.05,165.94,282.92Zm14.35,4q-2.31,1.59-3.54,1c-.82-.4-1.38-1.57-1.69-3.53q-.1-.72-.21-1.65a15.29,15.29,0,0,1-.1-1.72l3.42-2.68q.09,1.14.21,2.22a18.63,18.63,0,0,0,.3,1.92c.14.68.52.9,1.15.65ZM185.7,276a11.65,11.65,0,0,1-.62,5.35,11.11,11.11,0,0,1-3.18,4.25l-.47-3.81a3.25,3.25,0,0,0,.73-2.09,15.33,15.33,0,0,0-.38-3.06,1.1,1.1,0,0,0-.58-.82,1.16,1.16,0,0,0-1.06.08L177.83,277c-1.32.63-2.28.66-2.89.08a5.31,5.31,0,0,1-1.26-3.1c-.13-.8-.22-1.55-.28-2.27a11.59,11.59,0,0,1,.63-5.33,11.3,11.3,0,0,1,3.22-4.28l.47,3.8a3.3,3.3,0,0,0-.78,2.12,15.85,15.85,0,0,0,.38,3.11,1.54,1.54,0,0,0,.48.85c.23.19.55.18,1,0l2-1c1.42-.71,2.49-.8,3.21-.25a4.67,4.67,0,0,1,1.43,3.09c.06.33.11.7.15,1.09S185.67,275.67,185.7,276Zm7,.87-3.64,2.85-3-24.2,3.64-2.85Zm5.25-4.11-3.62,2.84-.49-4,3.62-2.83Zm-2.49-20.2-3.62,2.83-.49-4L195,248.6Zm6.82-5.84a3.42,3.42,0,0,0-.68,2.7q.66,6.7,1.62,13.16.21,1.65,1.17,1.29l.47,3.79c-1.6,1.12-2.82,1.48-3.64,1.09s-1.39-1.58-1.67-3.57c-.21-1.48-.41-2.9-.58-4.25s-.34-2.71-.5-4.08-.33-2.83-.49-4.37a10.88,10.88,0,0,1,.6-5.23A11.56,11.56,0,0,1,201.8,243Zm8,10.05a11.34,11.34,0,0,1-.58,5.33,11.46,11.46,0,0,1-3.27,4.31l-.46-3.78a3.7,3.7,0,0,0,.69-2.77c-.05-.67-.11-1.27-.18-1.78s-.14-1.1-.25-1.76l3.64-2.85c.08.47.15,1,.23,1.63S210.26,256.3,210.3,256.8Zm6.94.9-3.64,2.85-3-24.19,3.64-2.85Zm3.43-2.67-2.83-6.75,0,0-.5-4,0,0a3.21,3.21,0,0,0,1.37-2.9,41.13,41.13,0,0,0-.58-4.72c-.18-1.07-.78-1.21-1.78-.42l0,0-.49-4,0,0c1.81-1.42,3.18-2,4.09-1.7s1.54,1.45,1.86,3.52l.21,1.46c.06.42.11.84.16,1.27s.09.92.15,1.5a10.34,10.34,0,0,1-1.28,6.53l3.4,7.23Zm9.94-7.77L227,250.11l-3-24.2,3.65-2.85Zm5.24-4.11L232.23,246l-.49-4,3.62-2.83ZM233.37,223l-3.62,2.83-.5-4,3.62-2.83Zm10.91,13.61-3.64,2.85-2.32-18.81,3.65-2.85Zm.87-22.82-10.38,8.11-.49-4,10.38-8.12Z" style="fill: rgb(69, 90, 100); transform-origin: 188.32px 266.598px;" id="elyd3v1bq0b9j" class="animable"></path></g></g><g id="freepik--Photo--inject-180" class="animable" style="transform-origin: 259.615px 390.195px;"><g id="freepik--photo--inject-180" class="animable" style="transform-origin: 259.615px 390.195px;"><g id="freepik--photo--inject-180" class="animable" style="transform-origin: 259.615px 390.195px;"><g id="freepik--photo--inject-180" class="animable" style="transform-origin: 259.615px 390.195px;"><polygon points="262.69 445.09 164.55 388.41 256.54 335.3 354.68 391.98 262.69 445.09" style="fill: rgb(255, 255, 255); transform-origin: 259.615px 390.195px;" id="elipykolevrv" class="animable"></polygon><path d="M262.69,445.69l-.26-.15-98.92-57.13,93-53.71.26.15L355.72,392Zm-97.1-57.28,97.1,56.08L353.64,392l-97.1-56.08Z" style="fill: rgb(224, 224, 224); transform-origin: 259.615px 390.195px;" id="ely1xxapdj2xk" class="animable"></path></g><polygon points="256.54 340.81 345.14 391.98 262.69 439.58 174.09 388.41 256.54 340.81" style="fill: rgb(159, 155, 162); transform-origin: 259.615px 390.195px;" id="el3kg5udeyq0u" class="animable"></polygon><g id="el3qt41j7r533"><polygon points="256.54 340.81 345.14 391.98 262.69 439.58 174.09 388.41 256.54 340.81" style="fill: rgb(255, 255, 255); opacity: 0.3; transform-origin: 259.615px 390.195px;" class="animable"></polygon></g></g><g id="freepik--Picture--inject-180" class="animable" style="transform-origin: 272.289px 399.102px;"><g id="freepik--Hair--inject-180" class="animable" style="transform-origin: 266.374px 396.727px;"><path d="M214.13,393.72c-11.11-5.71-7.35-17.25,1.39-23.17,9.95-6.74,19.24-7.5,28.66-2.65,5.12-3,14.93-1.09,19.86,3,5.31,4.4,6.85,7.36,13.48,7.77,8.7.52,12.11,2.12,15.79,6.28,2.95,3.34,7.32,4.39,11.39,4.45,9.38.15,17.35,3,20.79,8L289,418.52s-50.68-27.23-61.43-26.47S214.13,393.72,214.13,393.72Z" style="fill: rgb(159, 155, 162); transform-origin: 266.374px 391.652px;" id="el6mirosbfd4t" class="animable"></path><g id="eljdfqese0glp"><path d="M214.13,393.72c-11.11-5.71-7.35-17.25,1.39-23.17,9.95-6.74,19.24-7.5,28.66-2.65,5.12-3,14.93-1.09,19.86,3,5.31,4.4,6.85,7.36,13.48,7.77,8.7.52,12.11,2.12,15.79,6.28,2.95,3.34,7.32,4.39,11.39,4.45,9.38.15,17.35,3,20.79,8L289,418.52s-50.68-27.23-61.43-26.47S214.13,393.72,214.13,393.72Z" style="opacity: 0.5; transform-origin: 266.374px 391.652px;" class="animable"></path></g><path d="M230,379c-5-2-12.44-2.65-17.82,2.37-4.72,4.41-3.86,10.35,4.14,13.33a33.31,33.31,0,0,0,8.55,1.73c2.41.24,5,.64,6.32,3a18.39,18.39,0,0,1,1.21,3.65,11.31,11.31,0,0,0,2.78,5c2.48,2.41,6.35,3.39,9.63,4.15,6.09,1.41,11.37,2.65,12.61,7,1,3.37,2.8,7.7,14,9.44l23.19-13.4Z" style="fill: rgb(159, 155, 162); transform-origin: 251.952px 403.091px;" id="elje53bvslp3" class="animable"></path><g id="elinfx63zt56"><path d="M230,379c-5-2-12.44-2.65-17.82,2.37-4.72,4.41-3.86,10.35,4.14,13.33a33.31,33.31,0,0,0,8.55,1.73c2.41.24,5,.64,6.32,3a18.39,18.39,0,0,1,1.21,3.65,11.31,11.31,0,0,0,2.78,5c2.48,2.41,6.35,3.39,9.63,4.15,6.09,1.41,11.37,2.65,12.61,7,1,3.37,2.8,7.7,14,9.44l23.19-13.4Z" style="opacity: 0.7; transform-origin: 251.952px 403.091px;" class="animable"></path></g></g><path d="M268,384.42c7.21,4.16,12.19,7.66,17.09,8.78,3.71.84,8.16-.07,12.88-1.35,13.23-3.59,21.67-1.94,39.35,4.66l-63.92,36.91s-10.55-14.39-8.16-18.58c2.78-4.87,7.17-9.37,4.74-11.08a63.25,63.25,0,0,0-5.7-3.29s-6.49-8.21-3.42-12.86S268,384.42,268,384.42Z" style="fill: rgb(159, 155, 162); transform-origin: 298.678px 408.811px;" id="elitye3cxq9m" class="animable"></path><g id="elsqbxo6ucwg"><path d="M268,384.42c7.21,4.16,12.19,7.66,17.09,8.78,3.71.84,8.16-.07,12.88-1.35,13.23-3.59,21.67-1.94,39.35,4.66l-63.92,36.91s-10.55-14.39-8.16-18.58c2.78-4.87,7.17-9.37,4.74-11.08a63.25,63.25,0,0,0-5.7-3.29s-6.49-8.21-3.42-12.86S268,384.42,268,384.42Z" style="fill: rgb(255, 255, 255); opacity: 0.7; transform-origin: 298.678px 408.811px;" class="animable"></path></g><g id="eld79abasvsx"><g style="opacity: 0.3; transform-origin: 292.495px 411px;" class="animable"><path d="M301.12,393c-2.69,3.08,1.45,9.14,4,11.31C300.18,401.51,296.3,395.73,301.12,393Z" style="fill: rgb(159, 155, 162); transform-origin: 302.017px 398.655px;" id="el04p2ktlj0lec" class="animable"></path><path d="M279,393.72c4.48,3,5.71,5.65,7.09,11C287,400.76,284.16,396.12,279,393.72Z" style="fill: rgb(159, 155, 162); transform-origin: 282.629px 399.22px;" id="elvfekpi962c" class="animable"></path><path d="M281,406.87a61.63,61.63,0,0,1-9.22-3.74A19.88,19.88,0,0,0,281,406.87Z" style="fill: rgb(159, 155, 162); transform-origin: 276.39px 405px;" id="el69rxgqq3pe2" class="animable"></path><path d="M278.74,419.18a16.19,16.19,0,0,1,5.14,8.17L281.1,429A14.14,14.14,0,0,0,278.74,419.18Z" style="fill: rgb(159, 155, 162); transform-origin: 281.31px 424.09px;" id="elaoaurl93m6p" class="animable"></path><polygon points="314.06 409.93 308.75 406.87 315.35 409.18 314.06 409.93" style="fill: rgb(159, 155, 162); transform-origin: 312.05px 408.4px;" id="elr0msgf37t6n" class="animable"></polygon><path d="M287.57,404.13l9.86-8.78a17.89,17.89,0,0,1-3.12,3.84A69.7,69.7,0,0,1,287.57,404.13Z" style="fill: rgb(159, 155, 162); transform-origin: 292.5px 399.74px;" id="el85tru144qm5" class="animable"></path><path d="M281,407.4a88.24,88.24,0,0,1-11.36,3.35C273.71,410.3,276.73,409.89,281,407.4Z" style="fill: rgb(159, 155, 162); transform-origin: 275.32px 409.075px;" id="elhh6m7890r1k" class="animable"></path></g></g><path d="M301.1,391.08c-3.17,4.14-1.94,10.73,5.09,14.55s7.86,4.3,7.86,4.3L275.79,432a38.09,38.09,0,0,1-4.94-9.28A59.44,59.44,0,0,1,268,410.5l2.46-4.32s5,4.08,11.66-1.18,4.15-11.59,4.15-11.59a20.26,20.26,0,0,0,6.22-.43C296.39,392.21,301.1,391.08,301.1,391.08Z" id="el4klf9umt63v" class="animable" style="transform-origin: 291.025px 411.54px;"></path><g id="eldlijdv632lg"><path d="M273.36,389.87c-2.66-2.51-4.22-3.39-3.51-4.36-.6-.36-1.22-.72-1.87-1.09,0,0-4.06-1.46-7.14,3.19s3.42,12.86,3.42,12.86.68.36,1.65.9a14.07,14.07,0,0,0,2.55-1C272.26,398.37,276.37,392.69,273.36,389.87Z" style="fill: rgb(159, 155, 162); opacity: 0.3; transform-origin: 267.206px 392.786px;" class="animable"></path></g><path d="M258.31,377.56c.09.62,1.21,1.16,1.45,1.79.18.47-.29,1-1,1.12a3,3,0,0,1-1.22,0,4.7,4.7,0,0,1-.9-.42,1.3,1.3,0,0,0,1.12-.08.48.48,0,0,0,.09-.7,2.62,2.62,0,0,0-.76-.65,19.92,19.92,0,0,0-5.45-2,60,60,0,0,1-8.21-2.58c-5.69-2.3-13.24-.43-13.38,5-9.75-.2-9.36,5-6.13,7.38s4.36,3.27,5.92,4.36a44.83,44.83,0,0,0,10.87,5.94c5.19,2.08,9.66,4.57,13.74,4.72s10.35-.63,12.57-1.91,6.2-5.85,4.72-8.66c-1.23-2.32-3.77-3.91-6-5.86,2.3-.17,4.17-1.19,2.27-4.32a6.68,6.68,0,0,0-.88-1.09,11.69,11.69,0,0,0-4.26-2.76,7,7,0,0,0-2.49-.45c-1.06,0-2.12.47-2.08,1.14A.09.09,0,0,0,258.31,377.56Z" style="fill: rgb(159, 155, 162); transform-origin: 246.965px 387.267px;" id="elcijcdrtv1df" class="animable"></path><g id="el2txnu3k4qv2"><path d="M258.31,377.56c.09.62,1.21,1.16,1.45,1.79.18.47-.29,1-1,1.12a3,3,0,0,1-1.22,0,4.7,4.7,0,0,1-.9-.42,1.3,1.3,0,0,0,1.12-.08.48.48,0,0,0,.09-.7,2.62,2.62,0,0,0-.76-.65,19.92,19.92,0,0,0-5.45-2,60,60,0,0,1-8.21-2.58c-5.69-2.3-13.24-.43-13.38,5-9.75-.2-9.36,5-6.13,7.38s4.36,3.27,5.92,4.36a44.83,44.83,0,0,0,10.87,5.94c5.19,2.08,9.66,4.57,13.74,4.72s10.35-.63,12.57-1.91,6.2-5.85,4.72-8.66c-1.23-2.32-3.77-3.91-6-5.86,2.3-.17,4.17-1.19,2.27-4.32a6.68,6.68,0,0,0-.88-1.09,11.69,11.69,0,0,0-4.26-2.76,7,7,0,0,0-2.49-.45c-1.06,0-2.12.47-2.08,1.14A.09.09,0,0,0,258.31,377.56Z" style="fill: rgb(255, 255, 255); opacity: 0.75; transform-origin: 246.965px 387.267px;" class="animable"></path></g><g id="el2aiuwe3afxv"><path d="M261,392.23c-.26.52.18.73.64,1.59s-.4,1.83-1.29,2.37a6.37,6.37,0,0,1-4.12.75c-1.51-.3-2-.57-2.62-.44.41-.48.59-2.29,2.06-3.07S260,392.79,261,392.23Z" style="fill: rgb(159, 155, 162); opacity: 0.5; transform-origin: 257.689px 394.623px;" class="animable"></path></g><path d="M257.26,394.43c-.35.2-1.37.19-2.07.79,0,0-.29-.76.92-1.46a5.51,5.51,0,0,1,2.68-.63C257.68,393.44,257.63,394.21,257.26,394.43Z" style="fill: rgb(159, 155, 162); transform-origin: 256.975px 394.174px;" id="eljrvgh185xdq" class="animable"></path><g id="elu8qupkad0d"><path d="M257.26,394.43c-.35.2-1.37.19-2.07.79,0,0-.29-.76.92-1.46a5.51,5.51,0,0,1,2.68-.63C257.68,393.44,257.63,394.21,257.26,394.43Z" style="opacity: 0.5; transform-origin: 256.975px 394.174px;" class="animable"></path></g><path d="M252.82,396.69a4,4,0,0,0,2.84-2.14,2.89,2.89,0,0,1,2.13-1.2c1-.19,3.15-.58,3.53-1.59a15.42,15.42,0,0,1-4.31.34c-1.63,0-3.59,1.18-3.68,2S253.75,396.24,252.82,396.69Z" style="fill: rgb(159, 155, 162); transform-origin: 257.07px 394.225px;" id="elvz1eg82f7k" class="animable"></path><g id="elywba5cpskvn"><path d="M252.82,396.69a4,4,0,0,0,2.84-2.14,2.89,2.89,0,0,1,2.13-1.2c1-.19,3.15-.58,3.53-1.59a15.42,15.42,0,0,1-4.31.34c-1.63,0-3.59,1.18-3.68,2S253.75,396.24,252.82,396.69Z" style="opacity: 0.3; transform-origin: 257.07px 394.225px;" class="animable"></path></g><path d="M256.2,396.94a7.17,7.17,0,0,0,3.87-1c1.17-.67,1.63-1.6,1.54-2.14,0,0,1.52,1.1-1,2.55A5,5,0,0,1,256.2,396.94Z" style="fill: rgb(159, 155, 162); transform-origin: 259.132px 395.503px;" id="elmo4gp3h7m9" class="animable"></path><g id="elv3c1gs3444g"><g style="opacity: 0.5; transform-origin: 241.214px 385.047px;" class="animable"><path d="M241.15,381.64c1.28-.1,1.64-.67,2.56-1.51a8.42,8.42,0,0,1,6.44-2.14,13.23,13.23,0,0,0-4.3-.29,8.64,8.64,0,0,0-3.35,1.77,18.73,18.73,0,0,1-2.05,1.44C239.92,381.21,239.81,381.73,241.15,381.64Z" style="fill: rgb(159, 155, 162); transform-origin: 245.115px 379.645px;" id="el5s1nz1y3q24" class="animable"></path><path d="M236,384.84c-.16.73-1.16.94-2.61,1.47s-4,1.66-3.7,3.72c0,0-1.12-1.67-.52-2.48a7.81,7.81,0,0,1,3.07-1.93,26.37,26.37,0,0,0,2.5-1.19C235.25,384.12,236.16,384.06,236,384.84Z" style="fill: rgb(159, 155, 162); transform-origin: 232.506px 387.123px;" id="elp28e2onnbqo" class="animable"></path><path d="M251.53,381s.24.9-1.36,2.29a2.72,2.72,0,0,0,1.35-1.09C252,381.37,251.53,381,251.53,381Z" style="fill: rgb(159, 155, 162); transform-origin: 250.953px 382.145px;" id="eleg3hmzmnbgr" class="animable"></path><path d="M234.58,391a9,9,0,0,0,3.8-1,3.3,3.3,0,0,1-1.75.88A4.06,4.06,0,0,1,234.58,391Z" style="fill: rgb(159, 155, 162); transform-origin: 236.48px 390.539px;" id="el5dck0gv25il" class="animable"></path><path d="M249.66,390.42a1.46,1.46,0,0,0-.68.41,1.29,1.29,0,0,0-.18.35,3.63,3.63,0,0,1-.5.87c-.07.09-.14.21,0,.3a.75.75,0,0,0,.18.07,2.22,2.22,0,0,0,1.21-.12,4.51,4.51,0,0,0,.8-.36,1.46,1.46,0,0,1,.31-.14.67.67,0,0,1,.42,0,1.33,1.33,0,0,1,.35.26,1.12,1.12,0,0,0,.62.21c.41,0,1.09-.34,1-.6s-.28-.21-.48-.27a2.27,2.27,0,0,1-.59-.21.26.26,0,0,1-.12-.14c0-.05,0-.09.07-.13a3.88,3.88,0,0,1,.56-.37,1.9,1.9,0,0,0,.72-.64c.41-.7-.71-1.65-2.12-1.63a2,2,0,0,1,.47.14,2.68,2.68,0,0,1,.83.41c.47.39,0,.84-.47,1a9.86,9.86,0,0,1-1.64.37A6.3,6.3,0,0,0,249.66,390.42Z" style="fill: rgb(159, 155, 162); transform-origin: 250.827px 390.367px;" id="elskdaazs7nao" class="animable"></path><path d="M238.57,385.26c2,.58,2.48,1.2,4.1,2.67a25.84,25.84,0,0,1,2.58,2.67s-2.5-2.05-4-3.45A14.44,14.44,0,0,0,238.57,385.26Z" style="fill: rgb(159, 155, 162); transform-origin: 241.91px 387.93px;" id="elbpwe1up8kcn" class="animable"></path></g></g><path d="M249.39,381.72c.73.29,1,.84.6,1.22a2.12,2.12,0,0,1-2.05.17c-.73-.28-1-.83-.6-1.22A2.14,2.14,0,0,1,249.39,381.72Z" style="fill: rgb(159, 155, 162); transform-origin: 248.665px 382.416px;" id="elhpyfar8lrdi" class="animable"></path><path d="M235.69,389.68a2.37,2.37,0,0,0,2.13.25c.63-.26.68-.81.13-1.21a2.4,2.4,0,0,0-2.13-.24C235.19,388.74,235.14,389.28,235.69,389.68Z" style="fill: rgb(159, 155, 162); transform-origin: 236.82px 389.205px;" id="el3dn6g9qsjkg" class="animable"></path><g id="elm2tg056rmlp"><g style="opacity: 0.5; transform-origin: 242.743px 385.806px;" class="animable"><path d="M249.39,381.72c.73.29,1,.84.6,1.22a2.12,2.12,0,0,1-2.05.17c-.73-.28-1-.83-.6-1.22A2.14,2.14,0,0,1,249.39,381.72Z" id="eltjkawqy4jxm" class="animable" style="transform-origin: 248.665px 382.416px;"></path><path d="M235.69,389.68a2.37,2.37,0,0,0,2.13.25c.63-.26.68-.81.13-1.21a2.4,2.4,0,0,0-2.13-.24C235.19,388.74,235.14,389.28,235.69,389.68Z" id="elj3mnhfaq2jo" class="animable" style="transform-origin: 236.82px 389.205px;"></path></g></g><path d="M246.74,384.45a1.89,1.89,0,0,1-.13-2.87c1.51-1.45,4.36-1.19,4.36-1.19a6.77,6.77,0,0,0-3.25,1.58A2.62,2.62,0,0,0,246.74,384.45Z" style="fill: rgb(38, 50, 56); transform-origin: 248.491px 382.411px;" id="el7v3kho0ysgt" class="animable"></path><path d="M248.93,380.63c1.34-.6,1.8-1.19,1.25-1.64a.81.81,0,0,1,0,1.6Z" style="fill: rgb(38, 50, 56); transform-origin: 249.897px 379.81px;" id="el479fn1a5vrk" class="animable"></path><path d="M240.12,387.92a7.72,7.72,0,0,0-4.89.16c-2.35,1-1.68,2.63-1.68,2.63s.35-1.14,2.43-2A10.41,10.41,0,0,1,240.12,387.92Z" style="fill: rgb(38, 50, 56); transform-origin: 236.791px 389.154px;" id="elcrrej8ba0ga" class="animable"></path><path d="M233.77,389.24a2.75,2.75,0,0,1-2.7.87c.79.63,2.58.25,2.73-.14Z" style="fill: rgb(38, 50, 56); transform-origin: 232.435px 389.843px;" id="elgbja22eot7w" class="animable"></path><path d="M266.9,382.37c.67.39.74,1,.16,1.3a2.49,2.49,0,0,1-2.25-.09c-.67-.38-.74-1-.16-1.3A2.52,2.52,0,0,1,266.9,382.37Z" style="fill: rgb(250, 250, 250); transform-origin: 265.855px 382.977px;" id="elepqedq61oup" class="animable"></path></g><polygon points="258.84 373.77 265.7 377.72 233.16 396.51 226.29 392.56 258.84 373.77" style="fill: rgb(38, 50, 56); transform-origin: 245.995px 385.14px;" id="el3ha7c09kdji" class="animable"></polygon></g></g><g id="freepik--Character--inject-180" class="animable" style="transform-origin: 420.336px 211.4px;"><g id="freepik--Chartacter--inject-180" class="animable" style="transform-origin: 420.336px 211.4px;"><g id="freepik--Bottom--inject-180" class="animable" style="transform-origin: 425.566px 270.643px;"><polygon points="410.99 343.66 405.55 341.58 407.35 337.89 410.69 341.03 410.99 343.66" id="elfge8it4hebs" class="animable" style="transform-origin: 408.27px 340.775px;"></polygon><path d="M416.68,333.84s.2,3.55.24,4.67-4.74,4.58-5.93,5.15l-.3-2.63a20.5,20.5,0,0,0-2.75,4.23c-.93,1.59-2.11,4.6-4.65,6.65-3.76,3-9.61,4.56-15.56,4.75s-9.37-1.29-11.06-2.59-2.21-2.82-1.78-4.33S416.68,333.84,416.68,333.84Z" style="fill: rgb(38, 50, 56); transform-origin: 395.833px 345.258px;" id="elnlhhok19ghk" class="animable"></path><path d="M400.8,321.65l-.06-2.06c-1.1,0-1.25,2.94-2.86,5.55a52.89,52.89,0,0,1-8.44,10.68c-6.07,5.48-11.47,8.91-14.18,11.38-3.62,3.3,2.69,8.6,12.42,8.1,4.82-.25,13.41-2.63,15.83-5.48s3.92-7.27,5.86-9.34,6.09-4.13,7.31-6.64c.66-1.38.33-4.6-.05-7.35-.35-2.51-.41-6.37-1.83-6.06l-.1,1.29c-.59,1.1-1.94,2.91-5.83,3.55C406.92,325.58,401.12,325.73,400.8,321.65Z" style="fill: rgb(55, 71, 79); transform-origin: 395.642px 337.461px;" id="elhutjrqtjj1" class="animable"></path><g id="el2v4ni9mq1nk"><path d="M405.74,325.35c-1.86-.17-3.85-.79-4.62-2.47l0-.05a4.68,4.68,0,0,1-1.27,3.95c-1.75,2-12.8,16.32-12.8,16.32s10.28-11.78,12.25-14c2.92-3.28,3.84-3.66,6.49-3.74Z" style="opacity: 0.15; transform-origin: 396.42px 332.965px;" class="animable"></path></g><g id="elbrzk770lh"><path d="M403.3,329.14a.58.58,0,0,0,.65.53.59.59,0,0,0,.53-.65.6.6,0,0,0-.66-.53A.59.59,0,0,0,403.3,329.14Z" style="opacity: 0.15; transform-origin: 403.89px 329.081px;" class="animable"></path></g><g id="elypyunhn8kvh"><path d="M400.41,332.3a.6.6,0,0,0,.66.53.59.59,0,0,0-.13-1.18A.59.59,0,0,0,400.41,332.3Z" style="opacity: 0.15; transform-origin: 401.003px 332.24px;" class="animable"></path></g><g id="el8g360hsn8eo"><path d="M397.53,335.46a.59.59,0,0,0,.65.53.6.6,0,0,0,.53-.65.59.59,0,0,0-.65-.53A.58.58,0,0,0,397.53,335.46Z" style="opacity: 0.15; transform-origin: 398.119px 335.4px;" class="animable"></path></g><g id="eln9as6wfutkd"><path d="M394.64,338.62a.6.6,0,0,0,.66.53.6.6,0,0,0,.52-.66.58.58,0,0,0-.65-.52A.59.59,0,0,0,394.64,338.62Z" style="opacity: 0.15; transform-origin: 395.23px 338.559px;" class="animable"></path></g><g id="elvia0i1ydpxr"><path d="M391.76,341.78a.6.6,0,0,0,.65.53.6.6,0,0,0-.12-1.19A.6.6,0,0,0,391.76,341.78Z" style="opacity: 0.15; transform-origin: 392.329px 341.716px;" class="animable"></path></g><path d="M403.91,329.32a.23.23,0,0,0,.15-.07.25.25,0,0,0,0-.34,9.79,9.79,0,0,0-6.72-2.69h0a.24.24,0,0,0-.22.25.25.25,0,0,0,.25.23c3.53-.19,6.32,2.52,6.35,2.55A.26.26,0,0,0,403.91,329.32Z" style="fill: rgb(38, 50, 56); transform-origin: 400.623px 327.77px;" id="el8x75lmk8zq" class="animable"></path><path d="M401,332.47a.3.3,0,0,0,.15-.07.25.25,0,0,0,0-.34,9.78,9.78,0,0,0-6.71-2.69h0a.24.24,0,0,0-.22.25.24.24,0,0,0,.26.22,9.46,9.46,0,0,1,6.34,2.56A.26.26,0,0,0,401,332.47Z" style="fill: rgb(38, 50, 56); transform-origin: 397.718px 330.92px;" id="eliyezz7b6mfj" class="animable"></path><path d="M398.14,335.64a.3.3,0,0,0,.15-.07.25.25,0,0,0,0-.34,9.78,9.78,0,0,0-6.71-2.69h0a.24.24,0,0,0,0,.47c3.53-.18,6.32,2.53,6.35,2.56A.26.26,0,0,0,398.14,335.64Z" style="fill: rgb(38, 50, 56); transform-origin: 394.873px 334.091px;" id="elhfu9345f8l5" class="animable"></path><path d="M395.25,338.8a.26.26,0,0,0,.15-.07.23.23,0,0,0,0-.34,9.77,9.77,0,0,0-6.71-2.7h0a.24.24,0,0,0-.22.26.22.22,0,0,0,.25.22c3.52-.19,6.32,2.53,6.35,2.56A.24.24,0,0,0,395.25,338.8Z" style="fill: rgb(38, 50, 56); transform-origin: 391.972px 337.245px;" id="elp642jppyp7p" class="animable"></path><path d="M392.37,342a.19.19,0,0,0,.15-.07.24.24,0,0,0,0-.33,9.77,9.77,0,0,0-6.71-2.7h0a.24.24,0,0,0-.22.26.24.24,0,0,0,.25.22c3.53-.19,6.32,2.53,6.35,2.56A.22.22,0,0,0,392.37,342Z" style="fill: rgb(38, 50, 56); transform-origin: 389.087px 340.451px;" id="elnwr79pokau" class="animable"></path><path d="M455.56,360.81c.83,4.65,1.93,7.67,3.92,10.22s5.55,2.83,8.2,2.28a11.37,11.37,0,0,0,8.82-8.7c.86-3.21.27-6.88-1-11.14Z" style="fill: rgb(38, 50, 56); transform-origin: 466.233px 363.508px;" id="elbssvlqu2as7" class="animable"></path><path d="M465.91,325.11c1.32-.05,2.46,6.19,4,12.39,1.61,6.65,4.12,10.18,5.34,14.65,1.68,6.19,1.58,9.08-.18,13.16s-10.91,9.07-15.42,4.06c-3.68-4.09-4.4-9-4.87-15.36a159.64,159.64,0,0,0-1.62-16.09c-.81-4.7-1.69-9.25-.61-9.91.17.68.36,1.55.53,2.22.13.52.57,3.07,1.3,3a9.79,9.79,0,0,0-.19-1.78,2.12,2.12,0,0,1,.17-1.57,2.53,2.53,0,0,1,1.38-.82,35.83,35.83,0,0,1,3.81-1.06,18.86,18.86,0,0,1,1.95-.32,21.1,21.1,0,0,1,3.45-.26,1.15,1.15,0,0,1,.78.55,1.93,1.93,0,0,1,.15.72,5.63,5.63,0,0,0,.32,1.27c.07.18.23.4.41.33s.18-.25.17-.41c-.09-.76-.25-1.3-.39-2.19-.07-.4-.2-.95-.26-1.37S466,325.52,465.91,325.11Z" style="fill: rgb(55, 71, 79); transform-origin: 464.25px 348.292px;" id="ellysstbgux5i" class="animable"></path><g id="elfmbfhbhqe1q"><path d="M470.6,354.28a.47.47,0,0,1-.35.55.46.46,0,0,1-.55-.35.45.45,0,0,1,.35-.55A.46.46,0,0,1,470.6,354.28Z" style="opacity: 0.15; transform-origin: 470.148px 354.38px;" class="animable"></path></g><g id="elk8gz4i0qaop"><path d="M469.64,350a.46.46,0,0,1-.35.55.46.46,0,0,1-.2-.9A.46.46,0,0,1,469.64,350Z" style="opacity: 0.15; transform-origin: 469.19px 350.1px;" class="animable"></path></g><g id="elgbb0ebueja"><path d="M468.74,345.9a.46.46,0,0,1-.35.55.45.45,0,0,1-.55-.35.45.45,0,0,1,.35-.54A.46.46,0,0,1,468.74,345.9Z" style="opacity: 0.15; transform-origin: 468.29px 346.006px;" class="animable"></path></g><g id="el401xqy0vueg"><path d="M467.85,341.9a.46.46,0,1,1-.9.2.45.45,0,0,1,.35-.55A.46.46,0,0,1,467.85,341.9Z" style="opacity: 0.15; transform-origin: 467.399px 342.001px;" class="animable"></path></g><g id="el7njwuv4g5g7"><path d="M457.58,343.77a.46.46,0,0,1-.35.55.45.45,0,0,1-.55-.35.46.46,0,0,1,.35-.55A.47.47,0,0,1,457.58,343.77Z" style="opacity: 0.15; transform-origin: 457.13px 343.872px;" class="animable"></path></g><g id="elwgoigcflc9f"><path d="M458.47,347.81a.46.46,0,1,1-.55-.35A.45.45,0,0,1,458.47,347.81Z" style="opacity: 0.15; transform-origin: 458.021px 347.908px;" class="animable"></path></g><g id="elkr711rikmv"><path d="M459.38,351.88a.46.46,0,0,1-.9.2.45.45,0,0,1,.35-.55A.46.46,0,0,1,459.38,351.88Z" style="opacity: 0.15; transform-origin: 458.929px 351.98px;" class="animable"></path></g><g id="elctfw4zanvks"><path d="M460.34,356.19a.46.46,0,0,1-.35.54.46.46,0,1,1-.2-.89A.46.46,0,0,1,460.34,356.19Z" style="opacity: 0.15; transform-origin: 459.86px 356.293px;" class="animable"></path></g><g id="elwtmemy58p2m"><polygon points="464.43 357.78 457.29 327.77 458.98 327.54 464.43 357.78" style="opacity: 0.15; transform-origin: 460.86px 342.66px;" class="animable"></polygon></g><path d="M470.2,354.61h-.07c-3.1-.31-8.22.61-10.12,1.84a.24.24,0,0,1-.33-.07.23.23,0,0,1,.07-.32c2-1.3,7.18-2.24,10.42-1.91a.23.23,0,0,1,.21.25A.24.24,0,0,1,470.2,354.61Z" style="fill: rgb(38, 50, 56); transform-origin: 465.012px 355.286px;" id="eldanyv471orl" class="animable"></path><path d="M469.24,350.3a.17.17,0,0,1-.12,0c-2.44-.81-7.9.45-10.07,1.85a.22.22,0,0,1-.32-.07.23.23,0,0,1,.07-.32c2.26-1.46,7.9-2.76,10.47-1.9a.23.23,0,0,1,.14.29A.21.21,0,0,1,469.24,350.3Z" style="fill: rgb(38, 50, 56); transform-origin: 464.057px 350.888px;" id="ellb2jo9zf0ac" class="animable"></path><path d="M468.34,346.23h-.13c-2.43-.82-7.89.45-10.06,1.85a.24.24,0,0,1-.33-.07.23.23,0,0,1,.07-.32c2.27-1.47,7.9-2.77,10.47-1.91a.24.24,0,0,1,.15.3A.23.23,0,0,1,468.34,346.23Z" style="fill: rgb(38, 50, 56); transform-origin: 463.152px 346.811px;" id="elp4lekgcyfu7" class="animable"></path><path d="M467.45,342.22h-.13c-2.43-.82-7.89.45-10.07,1.85a.23.23,0,0,1-.25-.39c2.27-1.46,7.9-2.77,10.47-1.91a.25.25,0,0,1,.15.3A.23.23,0,0,1,467.45,342.22Z" style="fill: rgb(38, 50, 56); transform-origin: 462.262px 342.801px;" id="el7ia3aepzkkh" class="animable"></path><path d="M457.7,171.48c3.05,38.67,6.05,92,6.05,92,.28,2.94,3.1,15.47,4.52,30,1.49,15.28,2.71,43.9,2.71,43.9s-10.69,5.75-19.35,2.86c0,0-9.28-48.2-13.72-66.21-4.21-17-10.78-49.35-10.78-49.35l-4.48,32s.6,11,.27,18.74c-.38,9-6.1,52.07-6.1,52.07s-11.63,6.85-20.62,0c0,0-1.56-59.45-1.81-70.24-.5-21.17,2-62.19,2.75-89.51Z" style="fill: rgb(38, 50, 56); transform-origin: 432.652px 254.396px;" id="elbc055qe1mir" class="animable"></path><path d="M443.11,216.63q1.22,13.91,2.7,27.78.74,6.94,1.52,13.87l.79,6.93.4,3.47c.13,1.15.37,2.29.54,3.44,1.53,9.18,3.88,25.84,5.54,35s3.43,18.29,5.33,27.4q-1.81-13.85-4-27.61c-1.43-9.18-3.68-25.85-5.25-35-.18-1.14-.42-2.28-.56-3.44l-.42-3.46-.88-6.91q-.87-6.91-1.8-13.82Q445.21,230.42,443.11,216.63Z" id="elybqe0q0nhd" class="animable" style="transform-origin: 451.52px 275.575px;"></path><path d="M400.28,214c-1,8.65-1.48,17.34-1.85,26s-.71,17.41-.39,26.1.44,23.26.76,31.95.72,17.37,1.24,26.05q.21-13,.08-26.07c-.06-8.69-.21-23.26-.39-31.95l-.16-6.51,0-1.63v-1.61l0-3.26.16-13,.21-13C400,222.7,400.14,218.36,400.28,214Z" id="el2r4abucgjpa" class="animable" style="transform-origin: 399.096px 269.05px;"></path><path d="M427.13,224.61l-3.77-21.18s-10.5-1.53-15.88-6.36c0,0,3.47,6.39,13.37,8.89l3.75,18.71-2,31.9Z" id="elfvuuxemcblm" class="animable" style="transform-origin: 417.305px 226.82px;"></path></g><g id="freepik--Top--inject-180" class="animable" style="transform-origin: 418.04px 120.365px;"><path d="M407.87,102.84c-8.12,2.4-10.54,5.52-13.55,13.5C390.46,126.62,384.16,142,384.16,142l-16.11,13.16,4.36,11.56s11-5.7,19.2-9.58c4.93-2.35,5.77-4.5,8.66-10.37,4.46-9.06,10.55-22.85,10.55-22.85Z" style="fill: rgb(55, 71, 79); transform-origin: 389.435px 134.78px;" id="el3al0ttdndft" class="animable"></path><path d="M442.44,98.62c10.25,3.53,15.15,4.32,23.89,8.31a234.07,234.07,0,0,1-5.2,34.56c-.92,3.77-1.61,15.28-2.3,23.31-.94,10.82-.23,11.08.47,20.47,0,0-12.65,8.37-39,5.67-20.72-2.12-23.73-9.68-23.73-9.68s1.39-29.67,2.34-45c1.24-20.09,4.42-30.06,9-33.45,6.91-2,17-3.93,17-3.93Z" style="fill: rgb(69, 90, 100); transform-origin: 431.45px 145.048px;" id="elb9hurnqwfm4" class="animable"></path><path d="M446.18,58.58s2.94.18,4.91,3.86c1,1.85,1.73,5.23-.8,15a39,39,0,0,1-4.53,10.75A4.79,4.79,0,0,1,443,90.41l.1-7.45.21-5.2s-4.24-3.75-4.64-7.47A11.91,11.91,0,0,1,440,62.75Z" style="fill: rgb(55, 71, 79); transform-origin: 445.273px 74.495px;" id="elkazpvok8jgb" class="animable"></path><path d="M447.2,58.81c-.78-4.18-6.16-9.11-16.41-9.53-8.41-.34-13.28,2.61-16.14,7.54s-.86,11.25-.86,11.25l26.36-2Z" style="fill: rgb(55, 71, 79); transform-origin: 430.155px 58.6617px;" id="elanbtfil1hxg" class="animable"></path><path d="M449.94,85.05c-3.83,1.93-5.63-1.1-5.63-1.1l-.39,15.37c-7.29,10-27.12,6.68-19.1-.85l0-3.51a23.08,23.08,0,0,1-3.34-.28c-3.43-.5-5.61-3.19-6.67-6.88-1.57-5.46-2.28-14.22-.33-23.57.38-1.8,1.13-3.78,2.77-4.62,4.08-2.08,7.91.8,13.65,3,2.38.89,8.13,1.22,9.64.49-2,2.23-1.87,9.19,1.11,12a6.27,6.27,0,0,0,1.49,1.9c1.27,1.07,2.26-1.75,3.29-2.86a4.31,4.31,0,0,1,6.72,1.46A7,7,0,0,1,449.94,85.05Z" style="fill: rgb(255, 168, 167); transform-origin: 433.597px 82.2257px;" id="elad0v69un1se" class="animable"></path><path d="M441.71,74.15c-.63,7.29-3.17,7.7-5.78,8-3.46.43-5.09-1.5-11.23-1.74-3.73-.14-4.95.92-7.1,1.71-1.59.58-2.86.34-3.4-1.09a24.34,24.34,0,0,1-.87-7.94,58.62,58.62,0,0,0-.17,12c.37,3.45,1.51,6.44,3.34,8.12,2.55,2.33,8,3.45,14.93,2.2s9.65-4,10.57-6.39c3-7.77,2.08-11.54,3-13S441.71,74.15,441.71,74.15Z" style="fill: rgb(55, 71, 79); transform-origin: 429.031px 84.5091px;" id="el4t8nnlqru4v" class="animable"></path><path d="M425.45,82.66c3.51.06,4.64.74,4.71,3.15a6,6,0,0,1-.19,2.84,3.22,3.22,0,0,1-2.05,1.68,11.83,11.83,0,0,1-3.46.22c-1-.06-2.35.06-3.14-.59a2.85,2.85,0,0,1-.7-1,6.48,6.48,0,0,1-.13-3.19C420.59,83.74,421.47,82.58,425.45,82.66Z" style="fill: rgb(255, 168, 167); transform-origin: 425.3px 86.6237px;" id="elsg8qagt094f" class="animable"></path><path d="M427.24,83.89a1,1,0,0,0-.58.13,8.24,8.24,0,0,1-2,.6,7.71,7.71,0,0,1-1.28.14c-.13,0-.39-.05-.46.09s.11.24.21.29a3.67,3.67,0,0,0,2.36,0,5.14,5.14,0,0,0,1.32-.56.92.92,0,0,0,.42-.64Z" style="fill: rgb(177, 102, 104); transform-origin: 425.072px 84.6108px;" id="el68njxpxvpv3" class="animable"></path><path d="M431,65.82l3.79,1.6a2.16,2.16,0,0,0-1.14-2.77A2,2,0,0,0,431,65.82Z" style="fill: rgb(55, 71, 79); transform-origin: 432.97px 65.9583px;" id="el1cvj8as4q6m" class="animable"></path><path d="M416.69,66.59l4-1.2A2,2,0,0,0,418.15,64,2.18,2.18,0,0,0,416.69,66.59Z" style="fill: rgb(55, 71, 79); transform-origin: 418.66px 65.2477px;" id="el6yynusm3inx" class="animable"></path><path d="M433.37,72.47a1.68,1.68,0,1,1-1.64-1.72A1.67,1.67,0,0,1,433.37,72.47Z" style="fill: rgb(38, 50, 56); transform-origin: 431.691px 72.4295px;" id="el1b0myroba36" class="animable"></path><path d="M420.89,72a1.68,1.68,0,1,1-1.63-1.72A1.53,1.53,0,0,1,420.89,72Z" style="fill: rgb(38, 50, 56); transform-origin: 419.216px 71.9576px;" id="elfv2oetwtoue" class="animable"></path><path d="M438,67.62l-.8-.14a24.6,24.6,0,0,0-7.87-.25c-2.52.57-3.43,1.34-4.82,1.26s-2.11-.95-4.44-1.84a21.59,21.59,0,0,0-7.35-.69l-.74,0a1.28,1.28,0,0,0-.85,1.32,3,3,0,0,0,.64,1.62,1.49,1.49,0,0,1,.27.58,28.15,28.15,0,0,0,.81,4.34,4.76,4.76,0,0,0,4.48,3.26,7.85,7.85,0,0,0,1.58-.07l.13,0a4.66,4.66,0,0,0,1.29-.44l.08,0,.11-.07.15-.09a1.48,1.48,0,0,1,.13-.08.77.77,0,0,0,.13-.12.4.4,0,0,0,.14-.11l.27-.24a5.7,5.7,0,0,0,1.09-1.59c.74-1.47.66-3.57,1.76-3.77a.59.59,0,0,1,.14,0h.15c1.48.09,1.22,2.37,2,4a5.58,5.58,0,0,0,5.3,3.51h.75a3.89,3.89,0,0,0,.78-.08.74.74,0,0,0,.25-.05.86.86,0,0,0,.23,0l.17,0a5.06,5.06,0,0,0,.88-.37l.31-.19c.18-.13.35-.27.53-.42a5.51,5.51,0,0,0,1-1.48,27.79,27.79,0,0,0,1.07-4.22,1.51,1.51,0,0,1,.28-.61A3,3,0,0,0,438.8,69,1.36,1.36,0,0,0,438,67.62Zm-16.32,5a5.15,5.15,0,0,1-.26.83s0,0,0,.06l0,.09,0,.06a.63.63,0,0,1,0,.09,1.39,1.39,0,0,1-.11.21c0,.06-.06.11-.09.18l0,0a.42.42,0,0,1-.08.12.53.53,0,0,1-.06.1s0,0,0,0A3.81,3.81,0,0,1,417.22,76a4,4,0,0,1-1.76-.51,5.17,5.17,0,0,1-2.2-3.77c-.2-1.15-.44-3.4.1-3.87a2.43,2.43,0,0,1,.6-.35H414a2.39,2.39,0,0,1,.26-.1l.16,0a.74.74,0,0,1,.14,0h.12l.14,0,.55-.07h.3a.6.6,0,0,1,.19,0H416l.52,0,.14,0c.33,0,.7.08,1.1.15,1.71.32,3.46,1.19,3.89,1.92S421.92,71.43,421.64,72.67Zm14.63.43a.11.11,0,0,0,0,.08.94.94,0,0,0,0,.09,3.56,3.56,0,0,1-.13.45A1.72,1.72,0,0,1,436,74h0c-.05.15-.12.3-.19.46a.61.61,0,0,1-.07.17.15.15,0,0,0,0,.09.86.86,0,0,1-.07.1l-.06.14-.09.14-.1.15-.12.16a3.75,3.75,0,0,1-3.42,1.43,4.6,4.6,0,0,1-3.49-1.5A5.19,5.19,0,0,1,427.28,73c-.23-1.28-.34-2.77.16-3.43a2.13,2.13,0,0,1,.73-.55l.14-.07.07,0a3,3,0,0,1,.36-.15,1.42,1.42,0,0,1,.33-.11,7.11,7.11,0,0,1,1.08-.29,3,3,0,0,1,.43-.09,8,8,0,0,1,1.1-.12.77.77,0,0,1,.26,0c2.41-.1,3.88.54,4.41,1S436.55,72,436.27,73.1Z" style="fill: rgb(69, 90, 100); transform-origin: 424.966px 71.9526px;" id="elutnkxw2l0rp" class="animable"></path><polygon points="438.75 68.54 446.7 73.82 445.04 76.04 437.19 70.81 438.75 68.54" style="fill: rgb(69, 90, 100); transform-origin: 441.945px 72.29px;" id="el0q7bmzzb7n3q" class="animable"></polygon><path d="M436.27,73.1a.11.11,0,0,0,0,.08.94.94,0,0,0,0,.09,3.56,3.56,0,0,1-.13.45A1.72,1.72,0,0,1,436,74h0c-.05.15-.12.3-.19.46a.61.61,0,0,1-.07.17.15.15,0,0,0,0,.09.86.86,0,0,1-.07.1l-.06.14-.09.14-.1.15-.12.16a3.75,3.75,0,0,1-3.42,1.43,4.6,4.6,0,0,1-3.49-1.5A5.19,5.19,0,0,1,427.28,73c-.23-1.28-.34-2.77.16-3.43a2.13,2.13,0,0,1,.73-.55l.14-.07.07,0a3,3,0,0,1,.36-.15,1.42,1.42,0,0,1,.33-.11,7.11,7.11,0,0,1,1.08-.29,3,3,0,0,1,.43-.09,8,8,0,0,1,1.1-.12.77.77,0,0,1,.26,0c2.41-.1,3.88.54,4.41,1S436.55,72,436.27,73.1Z" style="fill: rgb(38, 50, 56); transform-origin: 431.859px 72.5232px;" id="elhhf8676y2qo" class="animable"></path><path d="M421.64,72.67a5.15,5.15,0,0,1-.26.83s0,0,0,.06l0,.09,0,.06a.63.63,0,0,1,0,.09,1.39,1.39,0,0,1-.11.21c0,.06-.06.11-.09.18l0,0a.42.42,0,0,1-.08.12.53.53,0,0,1-.06.1s0,0,0,0A3.81,3.81,0,0,1,417.22,76a4,4,0,0,1-1.76-.51,5.17,5.17,0,0,1-2.2-3.77c-.2-1.15-.44-3.4.1-3.87a2.43,2.43,0,0,1,.6-.35H414a2.39,2.39,0,0,1,.26-.1l.16,0a.74.74,0,0,1,.14,0h.12l.14,0,.55-.07h.3a.6.6,0,0,1,.19,0H416l.52,0,.14,0c.33,0,.7.08,1.1.15,1.71.32,3.46,1.19,3.89,1.92S421.92,71.43,421.64,72.67Z" style="fill: rgb(38, 50, 56); transform-origin: 417.473px 71.6919px;" id="eleklamuas03r" class="animable"></path><path d="M426.31,74.24,426,78.93l-5.74-1.76c.13-.26.24-.52.37-.77A27.84,27.84,0,0,1,423,72.29h0c.46-.65.93-1.25,1.42-1.82C425.84,70.55,425.68,72.61,426.31,74.24Z" style="fill: rgb(242, 143, 143); transform-origin: 423.285px 74.7px;" id="elh2kflvz2xsq" class="animable"></path><path d="M364.3,122.84h0l1.54-1v0a1.59,1.59,0,0,1,1.45,0l27.84,11.35a5.52,5.52,0,0,1,3,3.57l9.23,42.61a1.43,1.43,0,0,1-.4,1.57h0L405.36,182v0a1.55,1.55,0,0,1-1.46,0l-27.85-11.35a5.6,5.6,0,0,1-3-3.57c-1.39-6.4-7.84-36.22-9.22-42.62C363.65,123.65,363.86,123.09,364.3,122.84Z" style="fill: rgb(159, 155, 162); transform-origin: 385.607px 151.924px;" id="elio0a7oq1tkj" class="animable"></path><g id="els9ktnxbpsu"><path d="M364.3,122.84h0l1.54-1v0a1.59,1.59,0,0,1,1.45,0l27.84,11.35a5.52,5.52,0,0,1,3,3.57l9.23,42.61a1.43,1.43,0,0,1-.4,1.57h0L405.36,182v0a1.55,1.55,0,0,1-1.46,0l-27.85-11.35a5.6,5.6,0,0,1-3-3.57c-1.39-6.4-7.84-36.22-9.22-42.62C363.65,123.65,363.86,123.09,364.3,122.84Z" style="fill: rgb(255, 255, 255); opacity: 0.5; transform-origin: 385.607px 151.924px;" class="animable"></path></g><path d="M395.1,135.28a5.52,5.52,0,0,1,1.47,2.51l9.22,42.61a1.49,1.49,0,0,1-.34,1.55l1.49-1v0a1.43,1.43,0,0,0,.4-1.57l-9.23-42.62a5.42,5.42,0,0,0-1.34-2.37Z" style="fill: rgb(159, 155, 162); transform-origin: 401.264px 158.17px;" id="elk8jivs6tyg7" class="animable"></path><g id="elasemjw4dge9"><path d="M395.1,135.28a5.52,5.52,0,0,1,1.47,2.51l9.22,42.61a1.49,1.49,0,0,1-.34,1.55l1.49-1v0a1.43,1.43,0,0,0,.4-1.57l-9.23-42.62a5.42,5.42,0,0,0-1.34-2.37Z" style="opacity: 0.25; transform-origin: 401.264px 158.17px;" class="animable"></path></g><path d="M405.79,180.4l-9.23-42.61a5.55,5.55,0,0,0-3-3.57l-27.84-11.35c-1.36-.55-2.2.16-1.89,1.58,1.38,6.4,7.83,36.22,9.22,42.62a5.6,5.6,0,0,0,3,3.57L403.9,182C405.25,182.54,406.09,181.83,405.79,180.4Z" style="fill: rgb(159, 155, 162); transform-origin: 384.808px 152.432px;" id="elqd7ndumkzpd" class="animable"></path><g id="eli8sxczqt99"><path d="M405.79,180.4l-9.23-42.61a5.55,5.55,0,0,0-3-3.57l-27.84-11.35c-1.36-.55-2.2.16-1.89,1.58,1.38,6.4,7.83,36.22,9.22,42.62a5.6,5.6,0,0,0,3,3.57L403.9,182C405.25,182.54,406.09,181.83,405.79,180.4Z" style="fill: rgb(255, 255, 255); opacity: 0.3; transform-origin: 384.808px 152.432px;" class="animable"></path></g><path d="M367.38,153.72c-1.29-2-1.14-2.26-.34-3.2a6.05,6.05,0,0,1,5.08-2.28c1.69.14,3.41.19,4.26.69s0,2.3-2.22,2.68c-3.53.6-3.56,1.55-3.56,1.55a45.08,45.08,0,0,1,4.54-.56,31.87,31.87,0,0,1,5.08,1c1.46.3,1.65,2.21-.88,2.74L382,157c1.87.39,2.46,1.43.92,2.52a2.82,2.82,0,0,1-1.75.56s2,.1,2,.77c0,1.92-1.25,2.35-5.37,3.32-3.93.93-4.83,3-4.14,4.45,0,0-1.51-1-2.85-2-1-.75-1.8-1.59-1.26-3.15,0,0-2.22-.07-2.28-1.44a7,7,0,0,1,.68-2.91,2.41,2.41,0,0,1-1.1-2.33,3.91,3.91,0,0,1,.93-2.36Z" style="fill: rgb(255, 168, 167); transform-origin: 375.112px 158.425px;" id="ele5f9ih7a3ya" class="animable"></path><path d="M379.34,156.38a12,12,0,0,0-2.43-.39,7.7,7.7,0,0,0-2.41.63,28.26,28.26,0,0,0-4.39,2.06,29.21,29.21,0,0,0,4.64-1.39,13,13,0,0,1,2.2-.75C377.69,156.46,378.54,156.49,379.34,156.38Z" style="fill: rgb(242, 143, 143); transform-origin: 374.725px 157.335px;" id="eldqxryvy0w2" class="animable"></path><path d="M381.19,160a5.24,5.24,0,0,0-2.64-.22,13,13,0,0,0-2.56.67,25.26,25.26,0,0,0-4.74,2.22,48.58,48.58,0,0,0,5-1.55A13.82,13.82,0,0,1,381.19,160Z" style="fill: rgb(242, 143, 143); transform-origin: 376.22px 161.186px;" id="elurfcqbz5k6i" class="animable"></path><path d="M460.94,104.64c4.72,1.59,7.56,3.66,9.72,6.43s3.11,8.23-2.94,24.43c-5.65,15.12-10.65,24.5-14.17,25-4.58.7-14.91-5.43-15-11.08,0,0,6.45-13,7.81-16.84C450.85,120,453.72,108.74,460.94,104.64Z" style="fill: rgb(55, 71, 79); transform-origin: 455.433px 132.597px;" id="el0uedkzxt1inn" class="animable"></path><path d="M415.44,100.9a2.55,2.55,0,0,0-2.82.39c-.49.54-.15,1.46.57,2.08a16.85,16.85,0,0,1,1.58,1.66l2.14-.16-.31-4.09Z" style="fill: rgb(242, 143, 143); transform-origin: 414.65px 102.835px;" id="eluxlbdht3fac" class="animable"></path><path d="M428.6,98.9c-.76-1.89-1.73-2.15-2.35-5.45s-1-8-1.15-9.45-1.61-1-2.45.6-.71,3.7-.71,5.55.38,5.88.53,6.87a5.7,5.7,0,0,1,0,1.64Z" style="fill: rgb(242, 143, 143); transform-origin: 425.266px 91.0114px;" id="elxlf12vgorc" class="animable"></path><path d="M428.6,98.9c-.42-.94-1.1-1.71-1.6-2.63a10.77,10.77,0,0,1-1-3c-.4-2-.63-4.07-.86-6.11l-.29-3.07c0-.49-.28-.79-.71-.67a2.23,2.23,0,0,0-1.09.83,5.65,5.65,0,0,0-.95,2.8c-.14,1-.14,2-.19,3.07a29,29,0,0,1-.06-3.09,5.83,5.83,0,0,1,.89-3,2.41,2.41,0,0,1,1.29-1,1,1,0,0,1,.93.2,1.33,1.33,0,0,1,.34.84l.34,3.06c.19,2.05.43,4.09.74,6.11a10.92,10.92,0,0,0,.81,2.92A30.5,30.5,0,0,1,428.6,98.9Z" style="fill: rgb(177, 102, 104); transform-origin: 425.217px 90.945px;" id="el000zojj7cgp6qh" class="animable"></path><path d="M436.31,115.32c-1.89-2.78-3-4-3.66-5.66s-2.69-6.71-3.07-8.41-.74-3.14-3.71-3.41a37.3,37.3,0,0,0-9.81.76c-1.31.47-.69,2.15-.21,3.59-1.19.49-1.38,1.77-.89,3.49s1,3.58,1,3.58c-.14,1.9,0,2.32,1.17,3.35a16.46,16.46,0,0,0,3.06,2.29,1.49,1.49,0,0,0,1.87-.35c.44,2.92,1.51,3.2,2.72,4.22,1.59,1.33,2.79,3,4.8,8.69s4,13,7,18.83c2.47,4.81,5.36,8.46,9.81,10.58,5.13,2.45,6.76.1,7.67-2.48a21.11,21.11,0,0,0,0-14.76c-1.49-4.43-4.53-7.24-7.75-11.1C443.37,125.11,439,119.23,436.31,115.32Z" style="fill: rgb(255, 168, 167); transform-origin: 435.05px 127.843px;" id="elezpk0gk8ydf" class="animable"></path><path d="M415.85,102.19c1.7-.51,9-1.3,9-1.3a37.71,37.71,0,0,0-9.24.54Z" style="fill: rgb(242, 143, 143); transform-origin: 420.23px 101.501px;" id="el9x75k8bdxcu" class="animable"></path><path d="M415.94,109.26c.29-2.15-.06-2.45,2.3-3.5s4.76-2.53,6.41-2.47c-1.94-.2-2-.08-4.38.93a29.2,29.2,0,0,0-4.3,2,4.22,4.22,0,0,0-.49,1.3Z" style="fill: rgb(242, 143, 143); transform-origin: 420.065px 106.234px;" id="eld3sq4mz2k2s" class="animable"></path><path d="M422,114.55c.56-1.65,1.25-4,1.45-5s-.17-1.55-1.43-1.27a2.83,2.83,0,0,0-2.2,2.46c-.16-1,0-2.22,2.07-3,2.2-.78,2.2.73,1.8,2S422,114.55,422,114.55Z" style="fill: rgb(242, 143, 143); transform-origin: 421.834px 111.038px;" id="elcnw1fsj5znl" class="animable"></path></g></g></g><g id="freepik--speech-bubble-1--inject-180" class="animable" style="transform-origin: 373.717px 91.94px;"><g id="freepik--speech-bubble--inject-180" class="animable" style="transform-origin: 373.717px 91.94px;"><g id="freepik--speech-bubble--inject-180" class="animable" style="transform-origin: 373.717px 91.94px;"><path d="M383,89.05V76.39l8.11.56a1,1,0,0,1,.61.13l5.58,3.23a1,1,0,0,1,.23,1.57l-9,10.41Z" style="fill: rgb(159, 155, 162); transform-origin: 390.406px 84.34px;" id="elj9xcfxvqib" class="animable"></path><g id="el92wokd7n3yl"><g style="opacity: 0.3; transform-origin: 390.406px 84.34px;" class="animable"><path d="M383,89.05V76.39l8.11.56a1,1,0,0,1,.61.13l5.58,3.23a1,1,0,0,1,.23,1.57l-9,10.41Z" style="fill: rgb(255, 255, 255); transform-origin: 390.406px 84.34px;" id="eliddw0wl6nx" class="animable"></path></g></g><path d="M349.6,112.57V86.76a2,2,0,0,1,.89-1.54l31.94-18.41a2,2,0,0,1,1.78,0l5,2.94a2,2,0,0,1,.89,1.55V97.12a1.94,1.94,0,0,1-.9,1.54l-31.94,18.41a2,2,0,0,1-1.78,0l-5-2.93A2,2,0,0,1,349.6,112.57Z" style="fill: rgb(159, 155, 162); transform-origin: 369.85px 91.94px;" id="el8p7nfjbhbae" class="animable"></path><g id="eluhs1qhouqk"><path d="M349.6,112.57V86.76a2,2,0,0,1,.89-1.54l31.94-18.41a2,2,0,0,1,1.78,0l5,2.94a2,2,0,0,1,.89,1.55V97.12a1.94,1.94,0,0,1-.9,1.54l-31.94,18.41a2,2,0,0,1-1.78,0l-5-2.93A2,2,0,0,1,349.6,112.57Z" style="fill: rgb(255, 255, 255); opacity: 0.3; transform-origin: 369.85px 91.94px;" class="animable"></path></g><path d="M357.09,117.14c-.43.16-.75-.07-.75-.59V90.75a1.82,1.82,0,0,1,.26-.88l-6.76-4a1.86,1.86,0,0,0-.24.85v25.81a2,2,0,0,0,.89,1.56l5,2.93A2,2,0,0,0,357.09,117.14Z" style="fill: rgb(159, 155, 162); transform-origin: 353.345px 101.562px;" id="el1awpyanr36o" class="animable"></path><g id="el7pqgcq82xlm"><path d="M357.09,117.14c-.43.16-.75-.07-.75-.59V90.75a1.82,1.82,0,0,1,.26-.88l-6.76-4a1.86,1.86,0,0,0-.24.85v25.81a2,2,0,0,0,.89,1.56l5,2.93A2,2,0,0,0,357.09,117.14Z" style="opacity: 0.2; transform-origin: 353.345px 101.562px;" class="animable"></path></g><path d="M396.71,80.19l-6.64-.71V71.31c0-.57-.4-.8-.9-.52L357.23,89.2a2,2,0,0,0-.89,1.54v25.81c0,.57.4.8.89.52l31.94-18.41a1.94,1.94,0,0,0,.9-1.54V90.89l7.47-9A1,1,0,0,0,396.71,80.19Z" style="fill: rgb(250, 250, 250); transform-origin: 377.087px 93.93px;" id="elhl0ykcbvf6" class="animable"></path><path d="M389.08,72v8.38l.88.09,6.64.72.13,0h.1l0,0,0,0-7.48,9-.23.28v6.58a1,1,0,0,1-.4.69l-31.36,18.07V90.74a1.07,1.07,0,0,1,.4-.69L389.08,72m.49-1.31a.86.86,0,0,0-.4.12L357.23,89.2a2,2,0,0,0-.89,1.54v25.81c0,.41.2.64.49.64a.83.83,0,0,0,.4-.12l31.94-18.41a1.94,1.94,0,0,0,.9-1.54V90.89l7.47-9a1,1,0,0,0-.72-1.69h-.11l-6.64-.71V71.31c0-.4-.21-.64-.5-.64Z" style="fill: rgb(159, 155, 162); transform-origin: 377.078px 93.93px;" id="el1jp2got1mg" class="animable"></path></g><path d="M364.84,93.29a3.39,3.39,0,0,1,1.31-.49,1.73,1.73,0,0,1,.94.12,1.22,1.22,0,0,1,.57.55,1.94,1.94,0,0,1,.22.78.59.59,0,0,1-.08.34.61.61,0,0,1-.22.23l-.78.45c-.12.08-.22.1-.28.07a.42.42,0,0,1-.17-.16.76.76,0,0,0-.5-.35,1.62,1.62,0,0,0-1,.3,4.19,4.19,0,0,0-.54.4,3.06,3.06,0,0,0-.46.5,2.29,2.29,0,0,0-.3.55,1.44,1.44,0,0,0-.11.57.9.9,0,0,0,.1.49.45.45,0,0,0,.36.17,2.85,2.85,0,0,0,.66-.1c.27-.06.61-.16,1-.27a5.43,5.43,0,0,1,1.15-.22,1.47,1.47,0,0,1,.79.17A1.09,1.09,0,0,1,368,98a2.79,2.79,0,0,1,.15,1,4.35,4.35,0,0,1-.22,1.36,5.84,5.84,0,0,1-.63,1.34,7.17,7.17,0,0,1-1,1.23,7,7,0,0,1-1.34,1,4,4,0,0,1-1.19.48,2,2,0,0,1-1,0,1.27,1.27,0,0,1-.7-.51,1.83,1.83,0,0,1-.3-1,.58.58,0,0,1,.08-.33.65.65,0,0,1,.22-.24l.77-.44a.38.38,0,0,1,.29-.08.31.31,0,0,1,.17.17,1,1,0,0,0,.19.27.5.5,0,0,0,.3.17,1,1,0,0,0,.47,0,2.46,2.46,0,0,0,.7-.31,5.21,5.21,0,0,0,.64-.44,3,3,0,0,0,.54-.53,2.75,2.75,0,0,0,.38-.6,1.49,1.49,0,0,0,.14-.65.55.55,0,0,0-.15-.45.71.71,0,0,0-.47-.08,5.64,5.64,0,0,0-.78.17c-.31.09-.67.19-1.08.28a3.7,3.7,0,0,1-1,.14,1.15,1.15,0,0,1-.69-.2,1.17,1.17,0,0,1-.41-.6,3.85,3.85,0,0,1-.13-1.07,4.33,4.33,0,0,1,.22-1.35,5.78,5.78,0,0,1,.61-1.31,6.46,6.46,0,0,1,.93-1.17A5.72,5.72,0,0,1,364.84,93.29Z" style="fill: rgb(69, 90, 100); transform-origin: 364.96px 98.627px;" id="el19p9wio7sx7" class="animable"></path><path d="M374.94,97.54a.8.8,0,0,1-.08.33.51.51,0,0,1-.21.24l-.85.49a.17.17,0,0,1-.21,0,.26.26,0,0,1-.09-.23V94.62a1.89,1.89,0,0,0-.31-1.24c-.2-.23-.52-.22-.95,0a2.28,2.28,0,0,0-.92,1.07,3.69,3.69,0,0,0-.34,1.61v3.75a.68.68,0,0,1-.09.33.51.51,0,0,1-.21.24l-.84.49a.17.17,0,0,1-.21,0,.26.26,0,0,1-.09-.23V91a.75.75,0,0,1,.09-.34.63.63,0,0,1,.21-.24l.84-.48a.18.18,0,0,1,.21,0,.29.29,0,0,1,.09.23v3.15a6.5,6.5,0,0,1,.67-1,3.63,3.63,0,0,1,.92-.78,2.24,2.24,0,0,1,1.13-.37,1,1,0,0,1,.73.33,1.85,1.85,0,0,1,.4.88,6,6,0,0,1,.11,1.25Z" style="fill: rgb(69, 90, 100); transform-origin: 372.239px 95.4063px;" id="elh84axuuznlo" class="animable"></path><path d="M382.1,93.41a.68.68,0,0,1-.09.33.51.51,0,0,1-.21.24l-.84.49a.17.17,0,0,1-.21,0,.26.26,0,0,1-.09-.23V90.49a2,2,0,0,0-.31-1.24c-.21-.23-.53-.22-1,0a2.29,2.29,0,0,0-.93,1.07,3.83,3.83,0,0,0-.34,1.61V95.7A.68.68,0,0,1,378,96a.42.42,0,0,1-.21.24l-.84.49a.17.17,0,0,1-.21,0,.26.26,0,0,1-.09-.23V86.85a.75.75,0,0,1,.09-.34.63.63,0,0,1,.21-.24l.84-.48a.18.18,0,0,1,.21,0,.27.27,0,0,1,.09.23v3.15a5.92,5.92,0,0,1,.68-1,3.47,3.47,0,0,1,.92-.78,2.21,2.21,0,0,1,1.13-.37,1,1,0,0,1,.73.33,1.94,1.94,0,0,1,.39.88,6,6,0,0,1,.12,1.25Z" style="fill: rgb(69, 90, 100); transform-origin: 379.374px 91.2612px;" id="elapgfa58mbk9" class="animable"></path><path d="M385.06,90a.18.18,0,0,1,.21,0,.3.3,0,0,1,.08.23v1.3a.8.8,0,0,1-.08.33.51.51,0,0,1-.21.24l-1,.55a.18.18,0,0,1-.21,0,.29.29,0,0,1-.09-.23v-1.3a.68.68,0,0,1,.09-.33.51.51,0,0,1,.21-.24Zm.24-1.43a.68.68,0,0,1-.09.33.56.56,0,0,1-.21.24l-.84.49a.17.17,0,0,1-.21,0,.26.26,0,0,1-.09-.23V82.86a.75.75,0,0,1,.09-.34.63.63,0,0,1,.21-.24l.84-.48a.17.17,0,0,1,.21,0,.25.25,0,0,1,.09.22Z" style="fill: rgb(69, 90, 100); transform-origin: 384.555px 87.2237px;" id="eluap7vthc3x" class="animable"></path></g></g><defs>     <filter id="active" height="200%">         <feMorphology in="SourceAlpha" result="DILATED" operator="dilate" radius="2"></feMorphology>                <feFlood flood-color="#32DFEC" flood-opacity="1" result="PINK"></feFlood>        <feComposite in="PINK" in2="DILATED" operator="in" result="OUTLINE"></feComposite>        <feMerge>            <feMergeNode in="OUTLINE"></feMergeNode>            <feMergeNode in="SourceGraphic"></feMergeNode>        </feMerge>    </filter>    <filter id="hover" height="200%">        <feMorphology in="SourceAlpha" result="DILATED" operator="dilate" radius="2"></feMorphology>                <feFlood flood-color="#ff0000" flood-opacity="0.5" result="PINK"></feFlood>        <feComposite in="PINK" in2="DILATED" operator="in" result="OUTLINE"></feComposite>        <feMerge>            <feMergeNode in="OUTLINE"></feMergeNode>            <feMergeNode in="SourceGraphic"></feMergeNode>        </feMerge>            <feColorMatrix type="matrix" values="0   0   0   0   0                0   1   0   0   0                0   0   0   0   0                0   0   0   1   0 "></feColorMatrix>    </filter></defs></svg>